<?xml version="1.0" encoding="UTF-8" standalone="no"?>
<svg
   width="951.76562"
   zoomAndPan="magnify"
   viewBox="0 0 713.82422 713.82421"
   height="951.76562"
   preserveAspectRatio="xMidYMid"
   version="1.0"
   id="svg77"
   sodipodi:docname="RVADefensa.svg"
   inkscape:version="1.4.2 (ebf0e940d0, 2025-05-08)"
   xmlns:inkscape="http://www.inkscape.org/namespaces/inkscape"
   xmlns:sodipodi="http://sodipodi.sourceforge.net/DTD/sodipodi-0.dtd"
   xmlns="http://www.w3.org/2000/svg"
   xmlns:svg="http://www.w3.org/2000/svg">
  <sodipodi:namedview
     id="namedview77"
     pagecolor="#ffffff"
     bordercolor="#000000"
     borderopacity="0.25"
     inkscape:showpageshadow="2"
     inkscape:pageopacity="0.0"
     inkscape:pagecheckerboard="0"
     inkscape:deskcolor="#d1d1d1"
     inkscape:zoom="0.54473411"
     inkscape:cx="450.67859"
     inkscape:cy="339.61523"
     inkscape:window-width="1920"
     inkscape:window-height="1043"
     inkscape:window-x="0"
     inkscape:window-y="0"
     inkscape:window-maximized="1"
     inkscape:current-layer="svg77" />
  <defs
     id="defs6">
    <g
       id="g1" />
    <clipPath
       id="43b049dde8">
      <path
         d="M 43.714844,26.261719 H 757.71484 V 740.26172 H 43.714844 Z m 0,0"
         clip-rule="nonzero"
         id="path1" />
    </clipPath>
    <clipPath
       id="9d14fd448e">
      <rect
         x="0"
         width="188"
         y="0"
         height="411"
         id="rect1" />
    </clipPath>
    <clipPath
       id="2416186b8b">
      <rect
         x="0"
         width="176"
         y="0"
         height="385"
         id="rect2" />
    </clipPath>
    <clipPath
       id="187ef4e26a">
      <rect
         x="0"
         width="178"
         y="0"
         height="390"
         id="rect3" />
    </clipPath>
    <clipPath
       id="c94eb95343">
      <rect
         x="0"
         width="188"
         y="0"
         height="411"
         id="rect4" />
    </clipPath>
    <clipPath
       id="3b48c8fab1">
      <rect
         x="0"
         width="176"
         y="0"
         height="385"
         id="rect5" />
    </clipPath>
    <clipPath
       id="8f582773ce">
      <rect
         x="0"
         width="178"
         y="0"
         height="389"
         id="rect6" />
    </clipPath>
  </defs>
  <g
     clip-path="url(#43b049dde8)"
     id="g8"
     transform="translate(-43.714844,-26.261719)">
    <path
       fill="#bb0e00"
       d="m 400.625,26.261719 c -196.93359,0 -356.910156,159.976561 -356.910156,356.910151 0,196.9336 159.976566,356.91407 356.910156,356.91407 196.93359,0 356.91406,-159.98047 356.91406,-356.91407 0,-196.93359 -159.98047,-356.910151 -356.91406,-356.910151 z m 0,29.742187 c 180.85937,0 327.17187,146.312504 327.17187,327.167964 0,180.85938 -146.3125,327.17188 -327.17187,327.17188 -180.85547,0 -327.167969,-146.3125 -327.167969,-327.17188 0,-180.85546 146.312499,-327.167964 327.167969,-327.167964 z m 0,0"
       fill-opacity="1"
       fill-rule="nonzero"
       id="path8" />
  </g>
  <g
     transform="translate(42.285156,122.73828)"
     id="g13">
    <g
       clip-path="url(#9d14fd448e)"
       id="g12">
      <g
         fill="#bb0e00"
         fill-opacity="1"
         id="g11">
        <g
           transform="translate(17.058934,315.29364)"
           id="g10">
          <g
             id="g9">
            <path
               d="M 43.578125,-1.5625 31.6875,-1.28125 27.40625,-1.0625 17.140625,-1.203125 l -3,-0.5 -0.765625,-1.953125 -0.140625,-2.984375 0.8125,-3.328125 0.15625,-3.3125 0.15625,-3.65625 -0.109375,-2.296875 0.546875,-2.03125 -0.109375,-2.3125 0.859375,-2.359375 -0.09375,-1.984375 0.203125,-2.328125 0.75,-4.65625 -0.109375,-2.3125 0.84375,-2.6875 -0.4375,-2.296875 0.859375,-2.671875 0.09375,-4.640625 0.53125,-2.6875 0.203125,-2.328125 -0.453125,-2.609375 1.1875,-2.71875 -0.25,-4.953125 1.34375,-6 -0.15625,-2.984375 0.5,-3.328125 0.07813,-4.96875 -0.140625,-2.640625 1.078125,-4.6875 0.234375,-2.3125 L 22,-94.40625 21.859375,-97.375 23.375,-99.765625 l 0.578125,-2.015625 -0.4375,-1.95313 0.125,-3.96875 0.546875,-2.35937 0.859375,-2.03125 -0.09375,-1.98438 0.546875,-2.32812 0.484375,-3.67188 0.21875,-2 0.4375,-4.3125 0.4375,-4.65624 -0.125,-2.65625 1.28125,-7 -0.109375,-2.3125 0.234375,-1.98438 0.21875,-2.34375 0.4375,-4.3125 0.21875,-1.98437 -0.109375,-2.3125 0.21875,-2 1.125,-4.04688 0.09375,-4.625 0.234375,-2 0.765625,-4.67187 0.71875,-5.3125 0.734375,-4.67188 0.234375,-2 -0.09375,-1.98437 0.109375,-4.3125 -0.109375,-1.98438 0.546875,-2.34375 0.78125,-4 0.734375,-5.32812 0.84375,-9.29688 0.203125,-2.67187 0.21875,-2.32813 -0.140625,-2.64062 1.1875,-2.70313 -0.515625,-3.60937 1.234375,-1.70313 2.1875,-2.78125 3.25,-0.8125 4.625,-0.23437 19.8125,-0.6875 14.1875,-0.71875 2.296875,-0.4375 3.28125,-0.5 2.671875,0.51562 4.984375,0.42188 2.96875,-0.15625 4.312505,0.45312 4.96875,0.0625 3.67187,0.48438 5.26563,-0.28125 2.67187,0.54687 3.73438,1.45313 3.03125,1.17187 2.32812,0.54688 3.07812,1.8125 2.03125,0.90625 1.70313,0.89062 4.07812,2.125 1.375,1.25 1.75,1.89063 1.42188,1.59375 2.51562,3.82812 2.54688,4.51563 1.25,5.21875 0.96875,6.23437 0.125,2.3125 1.3125,6.21875 0.14062,2.64063 -0.76562,4.67187 -0.21875,2.32813 0.57812,4.92187 0.125,2.3125 -0.71875,5.3125 -0.39062,5.34375 -0.82813,3.34375 -1.10937,4.01563 -0.5625,2.34375 -0.54688,2.01562 -0.875,2.375 -1.45312,4.03125 -2.73438,4.4375 -0.875,2.35938 -1.17187,3.04687 -2.4375,4.40625 -0.875,2.03125 -3.42188,4.48437 -1.5625,1.73438 -4.35937,5.17187 -6.39062,4.64063 -4.48438,2.54687 -2.29687,0.4375 0.14062,2.96875 1.125,2.59375 1.90625,4.875 0.15625,2.968755 0.875,4.234375 1.42188,1.921875 0.46875,2.625 0.85937,4.265625 1.09375,1.921875 1.20313,4.21875 0.75,1.953125 0.90625,4.578125 1.10937,2.265625 0.79687,2.625 1.53125,4.203125 0.10938,1.984375 1.90625,4.859375 0.875,4.265625 4.21875,11.6875 0.90625,4.578125 2.59375,5.515625 0.53125,3.9375 0.4375,2.28125 0.8125,2.9375 2.625,6.171875 -0.76563,4.328125 -1.64062,0.40625 -3.59375,0.84375 -4.28125,0.21875 -6.875,1.34375 -8.53125,1.4375 -4.29687,0.203125 -3.59375,0.515625 -2.65625,0.140625 -2.95313,0.484375 -2,-0.234375 -3.10937,-2.8125 -0.73438,-1.625 -1.203125,-3.90625 -0.734375,-1.609375 -1.1875,-3.59375 -2.21875,-4.828125 -0.140625,-2.640625 -1.125,-2.609375 -0.71875,-0.953125 -0.875,-4.265625 -1.109375,-2.234375 -0.125,-2.3125 -1.078125,-1.9375 -0.453125,-2.296875 -1.15625,-3.578125 -1.484375,-3.234375 -0.203125,-3.953125 -2.28125,-5.828125 -0.453125,-2.296875 -1.53125,-3.90625 -0.765625,-2.28125 -0.890625,-4.25 -1.53125,-4.21875 -0.5625,-4.609375 -0.75,-1.59375 -1.21875,-4.578125 L 75.125,-90.5 l -1.453125,-2.5625 -0.78125,-2.59375 -1.46875,-2.578125 -1.375,-1.265625 -2.328125,-0.203125 -0.265625,1.34375 -0.578125,2.015625 -0.75,4.65625 -0.1875,2.65625 -0.640625,7 0.28125,5.59375 -1.421875,4.375 -0.4375,4.640625 0.09375,1.984375 -0.421875,4.65625 -1.171875,2.71875 0.34375,6.921875 -0.515625,2.671875 -0.96875,6.984375 -0.203125,2.65625 -0.5625,2.015625 0.140625,2.640625 -0.75,4.65625 0.4375,1.96875 -0.5625,2.359375 0.109375,1.984375 -0.125,4.296875 -0.203125,2.328125 0.09375,1.984375 -0.203125,2.328125 -0.125,3.96875 -0.890625,2.359375 -0.828125,3.015625 -3.296875,-0.15625 -2.96875,0.484375 -4.9375,0.578125 z m 36,-138.10937 5.265625,-0.26563 3.921875,-1.1875 1.90625,-1.4375 3.203125,-2.125 2.234375,-1.4375 2.171875,-2.76562 1.234375,-2.0625 2.203125,-2.07813 1.42188,-4.375 0.54687,-2.67187 0.21875,-2 2.07813,-4.73438 -0.125,-2.625 0.82812,-2.71875 0.0625,-5.29687 -0.70312,-7.23438 -1.3125,-6.875 -1.8125,-2.875 -2.42188,-2.20312 -3.0625,-1.5 -7.296875,-0.625 -7.953125,0.0781 -2.90625,1.14063 -0.8125,3.67187 -0.875,2.375 -0.375,5.3125 -0.07813,4.96875 -0.125,4.29688 -0.53125,2.67187 -0.71875,5.32813 0.125,2.29687 -0.421875,4.98438 -0.828125,3.04687 0.46875,2.95313 -0.5,2.98437 -0.734375,5.34375 -0.203125,2.32813 0.4375,2.29687 -0.1875,2.64063 z m 0,0"
               id="path9" />
          </g>
        </g>
      </g>
    </g>
  </g>
  <g
     transform="translate(54.285156,135.73828)"
     id="g18">
    <g
       clip-path="url(#2416186b8b)"
       id="g17">
      <g
         fill="#121212"
         fill-opacity="1"
         id="g16">
        <g
           transform="translate(15.910485,295.38155)"
           id="g15">
          <g
             id="g14">
            <path
               d="m 40.84375,-1.453125 -11.140625,0.25 -4.03125,0.21875 L 16.0625,-1.125 13.25,-1.59375 12.53125,-3.421875 12.390625,-6.21875 l 0.78125,-3.125 0.140625,-3.109375 0.140625,-3.421875 -0.109375,-2.15625 0.53125,-1.875 -0.109375,-2.171875 0.8125,-2.21875 -0.09375,-1.859375 0.1875,-2.171875 0.71875,-4.375 -0.109375,-2.15625 0.796875,-2.53125 -0.421875,-2.140625 0.796875,-2.53125 0.07813,-4.328125 0.5,-2.515625 0.203125,-2.171875 -0.4375,-2.46875 1.109375,-2.515625 -0.234375,-4.65625 1.265625,-5.640625 -0.140625,-2.765625 0.46875,-3.140625 0.07813,-4.65625 -0.125,-2.453125 1,-4.40625 0.203125,-2.171875 0.1875,-2.5 -0.140625,-2.78125 1.4375,-2.25 0.515625,-1.875 -0.390625,-1.84375 0.109375,-3.718755 0.515625,-2.21875 0.828125,-1.89062 -0.09375,-1.85938 0.515625,-2.1875 0.453125,-3.4375 0.1875,-1.875 0.421875,-4.04687 0.40625,-4.35938 -0.125,-2.46875 1.21875,-6.56249 -0.109375,-2.17188 0.21875,-1.875 0.171875,-2.1875 0.421875,-4.03125 0.21875,-1.875 -0.109375,-2.17187 0.21875,-1.875 1.046875,-3.76563 0.09375,-4.34375 0.21875,-1.875 0.703125,-4.375 0.671875,-4.98437 0.71875,-4.375 0.21875,-1.875 -0.09375,-1.85938 0.09375,-4.03125 -0.09375,-1.84375 0.515625,-2.20312 0.734375,-3.76563 0.65625,-4.98437 0.796875,-8.70313 0.1875,-2.5 0.203125,-2.1875 -0.125,-2.46875 1.109375,-2.54687 -0.484375,-3.375 1.15625,-1.60938 2.046875,-2.57812 3.0625,-0.78125 4.328125,-0.21875 18.5625,-0.625 13.296875,-0.6875 2.140625,-0.42188 3.078125,-0.46875 2.5,0.5 4.6875,0.39063 2.765625,-0.14063 4.046875,0.40625 4.67188,0.0781 3.42187,0.45312 4.9375,-0.25 2.51563,0.48438 3.48437,1.375 2.82813,1.09375 2.20312,0.5 2.875,1.71875 1.90625,0.82812 1.59375,0.84375 3.8125,1.98438 1.29687,1.17187 1.64063,1.78125 1.3125,1.48438 2.35937,3.59375 2.39063,4.21875 1.1875,4.89062 0.90625,5.84375 0.10937,2.17188 1.21875,5.8125 0.125,2.48437 -0.70312,4.375 -0.20313,2.1875 0.54688,4.60938 0.10937,2.17187 -0.67187,5 -0.35938,4.96875 -0.78125,3.14063 -1.04687,3.78125 -0.51563,2.17187 -0.51562,1.89063 -0.8125,2.21875 -1.35938,3.79687 -2.57812,4.14063 -0.8125,2.21875 -1.10938,2.84375 -2.25,4.15624 -0.84375,1.90625 -3.20312,4.1875 -1.46875,1.625 -4.07812,4.85938 -5.98438,4.32812 -4.21875,2.375 -2.14062,0.42188 0.14062,2.79687 1.04688,2.42188 1.76562,4.546875 0.14063,2.796875 0.82812,3.984375 1.34375,1.796875 0.4375,2.4375 0.82813,4 1.01562,1.8125 1.125,3.96875 0.71875,1.8125 0.84375,4.3125 1.03125,2.109375 0.75,2.453125 1.4375,3.9375 0.0937,1.859375 1.78125,4.5625 0.8125,4 3.96875,10.953125 0.82812,4.28125 2.45313,5.15625 0.5,3.6875 0.42187,2.15625 0.75,2.75 2.46875,5.75 -0.73437,4.078125 -1.53125,0.390625 -3.375,0.78125 -4,0.203125 -6.45312,1.265625 -7.98438,1.328125 -4.03125,0.203125 -3.39062,0.484375 -2.45313,0.125 -2.765625,0.453125 -1.875,-0.21875 -2.9375,-2.640625 -0.6875,-1.515625 -1.125,-3.65625 -0.6875,-1.515625 -1.109375,-3.359375 -2.078125,-4.546875 -0.125,-2.46875 -1.046875,-2.421875 -0.671875,-0.90625 -0.828125,-3.984375 -1.046875,-2.125 L 84.625,-36.234375 83.609375,-38.03125 83.1875,-40.1875 82.09375,-43.546875 80.6875,-46.5625 80.5,-50.28125 l -2.140625,-5.453125 -0.40625,-2.171875 -1.4375,-3.625 -0.71875,-2.140625 -0.828125,-3.984375 -1.421875,-3.953125 -0.53125,-4.3125 -0.6875,-1.515625 -1.15625,-4.28125 -0.78125,-3.046875 -1.375,-2.421875 -0.734375,-2.4375 -1.375,-2.421875 -1.296875,-1.171875 -2.1875,-0.203125 -0.234375,1.25 -0.53125,1.890625 -0.6875,4.375 -0.171875,2.5 -0.609375,6.53125 0.265625,5.265625 -1.34375,4.078125 -0.390625,4.375 0.09375,1.859375 -0.40625,4.34375 -1.109375,2.53125 0.328125,6.5 -0.5,2.515625 -0.90625,6.546875 -0.1875,2.484375 -0.53125,1.890625 0.125,2.46875 -0.6875,4.375 0.40625,1.84375 -0.515625,2.203125 0.09375,1.859375 -0.109375,4.015625 -0.1875,2.1875 0.09375,1.859375 -0.203125,2.171875 -0.125,3.71875 -0.8125,2.21875 -0.78125,2.828125 -3.109375,-0.15625 -2.765625,0.453125 -4.625,0.546875 z M 74.546875,-130.85937 79.5,-131.125 l 3.671875,-1.10937 1.78125,-1.32813 3,-2.01562 2.109375,-1.34375 2.03125,-2.59375 1.140625,-1.92188 2.046875,-1.96875 1.34375,-4.07812 0.5,-2.51563 0.21875,-1.85937 1.953125,-4.4375 -0.125,-2.46875 0.796875,-2.53125 0.0625,-4.96875 -0.65625,-6.78125 -1.25,-6.45313 -1.6875,-2.6875 -2.28125,-2.0625 -2.84375,-1.40625 -6.859375,-0.57812 -7.4375,0.0625 -2.734375,1.07812 -0.75,3.4375 -0.828125,2.21875 -0.375,4.98438 -0.0625,4.64062 -0.109375,4.04688 -0.5,2.5 -0.671875,5 0.109375,2.17187 -0.390625,4.65625 -0.765625,2.82813 0.453125,2.78125 -0.484375,2.8125 -0.65625,4.98437 -0.203125,2.1875 0.421875,2.14063 -0.1875,2.5 z m 0,0"
               id="path13" />
          </g>
        </g>
      </g>
    </g>
  </g>
  <g
     transform="translate(62.285156,123.73828)"
     id="g23">
    <g
       clip-path="url(#187ef4e26a)"
       id="g22">
      <g
         fill="#bb0e00"
         fill-opacity="1"
         id="g21">
        <g
           transform="translate(16.181824,299.66866)"
           id="g20">
          <g
             id="g19">
            <path
               d="m 41.375,-1.46875 -11.28125,0.25 -4.078125,0.203125 -9.734375,-0.125 -2.859375,-0.484375 -0.71875,-1.859375 -0.140625,-2.8125 0.765625,-3.171875 0.15625,-3.15625 0.140625,-3.453125 -0.109375,-2.203125 0.53125,-1.890625 L 13.9375,-22.375 14.765625,-24.609375 14.65625,-26.5 14.875,-28.703125 15.59375,-33.125 15.484375,-35.3125 16.28125,-37.875 15.875,-40.046875 16.671875,-42.609375 16.75,-47 l 0.5,-2.546875 0.203125,-2.203125 -0.4375,-2.5 1.140625,-2.546875 -0.25,-4.703125 1.28125,-5.71875 -0.140625,-2.8125 0.46875,-3.171875 0.0625,-4.71875 -0.125,-2.484375 1.03125,-4.453125 0.203125,-2.21875 0.203125,-2.53125 -0.140625,-2.8125 1.4375,-2.265625 0.53125,-1.921875 -0.40625,-1.859375 0.125,-3.78125 0.515625,-2.20313 0.84375,-1.9375 -0.09375,-1.875 0.5,-2.23437 0.453125,-3.46875 0.21875,-1.89063 0.421875,-4.10937 0.40625,-4.42188 -0.125,-2.5 1.21875,-6.65624 -0.109375,-2.1875 0.21875,-1.90625 0.203125,-2.20313 0.421875,-4.09375 0.21875,-1.89062 -0.109375,-2.20313 0.21875,-1.89062 1.0625,-3.8125 0.09375,-4.40625 0.21875,-1.89063 0.703125,-4.42187 0.6875,-5.0625 0.734375,-4.4375 0.21875,-1.90625 -0.109375,-1.85938 0.109375,-4.09375 -0.09375,-1.875 0.515625,-2.23437 0.734375,-3.8125 0.671875,-5.0625 0.828125,-8.82813 0.1875,-2.51562 0.203125,-2.21875 -0.125,-2.5 1.109375,-2.5625 -0.484375,-3.4375 1.171875,-1.625 2.078125,-2.60938 3.09375,-0.79687 4.375,-0.21875 18.8125,-0.65625 13.46875,-0.67188 2.171875,-0.42187 3.125,-0.48438 2.53125,0.5 4.734375,0.40625 2.8125,-0.14062 4.109375,0.40625 4.718755,0.0781 3.45312,0.45313 5.01563,-0.25 2.54687,0.5 3.51563,1.375 2.875,1.125 2.23437,0.51562 2.90625,1.73438 1.9375,0.82812 1.59375,0.875 3.89062,1.98438 1.3125,1.1875 1.67188,1.8125 1.32812,1.5 2.375,3.64062 2.40625,4.28125 1.20313,4.96875 0.92187,5.90625 0.10938,2.20313 1.25,5.90625 0.125,2.5 -0.71875,4.4375 -0.20313,2.20312 0.54688,4.67188 0.125,2.20312 -0.6875,5.0625 -0.375,5.03125 -0.76563,3.17188 -1.07812,3.82812 -0.5,2.23438 -0.53125,1.89062 -0.82813,2.25 -1.375,3.82813 -2.625,4.21875 -0.82812,2.25 -1.10938,2.875 -2.28125,4.20312 -0.84375,1.9375 -3.24999,4.23437 -1.48438,1.64063 -4.14062,4.92187 -6.0625,4.40625 -4.28125,2.39063 -2.17188,0.42187 0.14063,2.82813 1.0625,2.45312 1.8125,4.60938 0.14062,2.828125 0.84375,4.046875 1.34375,1.8125 0.4375,2.5 0.84375,4.03125 1.03125,1.828125 1.14063,4.03125 0.73437,1.859375 0.84375,4.328125 1.04688,2.15625 0.76562,2.46875 1.45313,3.984375 0.0937,1.890625 1.79687,4.625 0.82813,4.046875 4.03124,11.09375 0.84375,4.34375 2.46875,5.21875 0.5,3.75 0.42188,2.171875 0.76562,2.78125 2.51563,5.84375 -0.73438,4.109375 -1.5625,0.390625 -3.40625,0.8125 -4.07812,0.203125 -6.53125,1.28125 -8.07812,1.34375 -4.07813,0.203125 -3.4375,0.5 -2.51562,0.125 -2.78125,0.453125 L 98.328125,-5 95.375,-7.6875 l -0.703125,-1.53125 -1.140625,-3.703125 -0.71875,-1.53125 -1.109375,-3.40625 -2.109375,-4.59375 -0.125,-2.484375 -1.0625,-2.46875 -0.671875,-0.90625 -0.84375,-4.046875 -1.046875,-2.15625 -0.109375,-2.171875 -1.03125,-1.828125 -0.421875,-2.1875 -1.125,-3.40625 -1.421875,-3.046875 -0.1875,-3.765625 -2.15625,-5.546875 L 78.96875,-58.640625 77.5,-62.34375 76.765625,-64.5 75.9375,-68.546875 l -1.4375,-4 -0.53125,-4.375 -0.703125,-1.53125 -1.171875,-4.328125 -0.796875,-3.109375 -1.375,-2.421875 -0.75,-2.484375 -1.375,-2.4375 -1.328125,-1.1875 -2.203125,-0.203125 -0.25,1.25 -0.53125,1.921875 -0.71875,4.4375 L 62.5625,-84.5 l -0.578125,6.625 0.265625,5.328125 -1.359375,4.140625 -0.40625,4.421875 0.09375,1.875 -0.390625,4.421875 -1.140625,2.5625 0.328125,6.578125 -0.5,2.546875 -0.90625,6.625 -0.1875,2.53125 -0.53125,1.90625 0.125,2.5 -0.703125,4.453125 0.40625,1.84375 -0.515625,2.234375 0.09375,1.890625 -0.125,4.078125 -0.203125,2.203125 0.09375,1.890625 -0.203125,2.203125 -0.109375,3.765625 -0.828125,2.234375 -0.796875,2.875 -3.140625,-0.15625 -2.796875,0.453125 -4.6875,0.546875 z m 34.140625,-131.09375 5.015625,-0.25 3.703125,-1.125 1.8125,-1.35937 3.046875,-2.04688 2.125,-1.35937 2.078125,-2.625 1.15625,-1.9375 2.09375,-1.96875 1.34375,-4.15625 0.5,-2.54688 0.21875,-1.89062 1.984375,-4.5 -0.125,-2.51563 0.8125,-2.54687 0.0469,-5.01563 -0.65625,-6.89062 -1.281255,-6.51563 -1.71875,-2.73437 -2.296875,-2.07813 -2.890625,-1.4375 -6.9375,-0.59375 -7.53125,0.0781 -2.78125,1.07812 -0.765625,3.5 -0.828125,2.23438 -0.359375,5.04687 -0.07813,4.71875 -0.109375,4.07813 -0.5,2.53125 -0.6875,5.0625 0.109375,2.20312 -0.390625,4.71875 -0.796875,2.85938 0.453125,2.8125 -0.453125,2.84375 -0.6875,5.04687 -0.203125,2.21875 0.421875,2.17188 -0.1875,2.53125 z m 0,0"
               id="path18" />
          </g>
        </g>
      </g>
    </g>
  </g>
  <g
     fill="#bb0e00"
     fill-opacity="1"
     id="g26"
     transform="translate(-43.714844,-26.261719)">
    <g
       transform="translate(263.70559,340.58657)"
       id="g25">
      <g
         id="g24">
        <path
           d="M 19.484375,-0.6875 18.5,-0.78125 14.40625,-0.578125 12.421875,-0.75 l -1.125,0.046875 -1,0.1875 L 8.75,-0.578125 7.75,-0.671875 6.625,-0.46875 5.5,-0.6875 4.3125,-1.625 l -0.25,-2.109375 0.625,-2.03125 0.03125,-2.109375 0.234375,-1 0.171875,-2 0.09375,-1.125 0.3125,-2.15625 0.078125,-0.984375 0.21875,-1.140625 0.09375,-1 0.46875,-1.859375 -0.171875,-0.84375 0.3125,-2.546875 0.34375,-1.59375 0.21875,-1.265625 0.359375,-1.3125 0.21875,-1.28125 0.1875,-1.71875 -0.046875,-0.984375 0.234375,-0.984375 0.09375,-0.859375 0.234375,-1 -0.1875,-0.96875 0.84375,-3.15625 0.1875,-2.140625 -0.046875,-0.84375 0.234375,-1.015625 0.09375,-1 0.09375,-0.84375 0.1875,-1.984375 -0.109375,-1.984375 0.46875,-2 -0.04687,-1 0.1875,-1.984375 0.5,-1.15625 L 10.6875,-55.4375 10.90625,-57.15625 11.234375,-59 11.84375,-61.015625 12.125,-64 12.015625,-65.984375 12.390625,-67 l 0.1875,-2 0.09375,-0.84375 -0.1875,-0.96875 0.484375,-1.71875 0.109375,-0.859375 0.328125,-1.859375 0.09375,-1 0.46875,-1.859375 -0.1875,-0.984375 0.07813,-1.125 0.0625,-1.859375 0.234375,-0.71875 0.1875,-1.984375 0.328125,-1.859375 0.09375,-0.84375 L 15,-88.34375 l 0.0625,-1.71875 0.21875,-1.5625 0.484375,-1.578125 0.171875,-2.125 0.234375,-0.859375 0.09375,-1 0.921875,-1.453125 0.96875,-0.484375 0.828125,-0.609375 0.96875,-0.1875 2.125,-0.234375 1.265625,0.0781 1.984375,-0.10937 0.984375,-0.1875 7.484375,-0.375 0.96875,-0.1875 1.59375,0.34375 0.625,1.40625 -0.09375,0.84375 0.09375,1.828125 -0.265625,0.4375 -0.0625,1.546875 0.1875,0.84375 -0.40625,0.59375 0.0625,1.265625 -0.390625,0.734375 -0.1875,1.984375 -0.5,1.296875 0.04687,1.140625 -0.09375,0.859375 0.04687,0.984375 -0.09375,0.84375 -0.515625,3.703125 -0.203125,1.5625 -0.25,0.875 -0.1875,1.703125 -0.09375,1 -0.0625,1.703125 -0.109375,1 -0.1875,1.828125 -0.34375,1.734375 -0.328125,1.84375 -0.109375,0.71875 -0.3125,2 -0.359375,1.296875 0.0625,1.265625 -0.09375,1 -0.07813,1.140625 0.04687,0.984375 L 32,-56.78125 l -0.359375,1.421875 -0.5,4.28125 -0.453125,2 -0.375,1.03125 0.04687,1.125 -0.328125,1.84375 -0.1875,1.84375 -0.203125,1.71875 -0.453125,2 0.04687,1.140625 -0.46875,1.984375 0.0625,1.140625 -0.1875,1.984375 -0.09375,0.71875 0.09375,1.96875 L 28,-29.125 l 0.21875,1.53125 -0.3125,2.15625 -0.09375,1.125 -0.484375,1.875 0.0625,1.125 -0.328125,1.984375 -0.1875,2 -0.1875,1.84375 0.04687,1 -0.34375,1.578125 L 26,-9.5 l -0.328125,1.875 -0.1875,1.984375 -0.34375,1.84375 -0.07813,1.140625 -0.359375,1.296875 -1.53125,0.5 z m 0,0"
           id="path23" />
      </g>
    </g>
  </g>
  <g
     fill="#bb0e00"
     fill-opacity="1"
     id="g29"
     transform="translate(-43.714844,-26.261719)">
    <g
       transform="translate(289.68169,339.29995)"
       id="g28">
      <g
         id="g27">
        <path
           d="M 31,0.171875 29.734375,0.09375 28.75,0.140625 27.734375,0.03125 26.1875,-0.03125 25.046875,-0.109375 24.1875,-0.21875 22.78125,-0.28125 21.765625,-0.515625 20.90625,-0.609375 19.03125,-1.21875 17.328125,-1.703125 16.4375,-2.375 14.984375,-3.15625 14.265625,-3.6875 13.390625,-4.203125 11.46875,-5.53125 10.875,-6.203125 10.125,-6.859375 9.046875,-8.796875 7.6875,-10.5625 7.171875,-12.390625 6.828125,-13.21875 6.453125,-15.046875 6.125,-16.015625 6,-18.703125 l -0.203125,-1.09375 -0.0625,-1.28125 0.09375,-1 -0.1875,-3.671875 v -2.96875 L 5.71875,-29.875 5.765625,-31.84375 5.96875,-33.828125 5.921875,-34.8125 l 0.09375,-0.875 0.140625,-2.984375 0.453125,-1.984375 -0.203125,-1.28125 0.234375,-1.140625 0.34375,-1.5625 L 6.8125,-45.34375 7.109375,-47.90625 7.625,-48.78125 7.53125,-50.765625 7.640625,-51.1875 7.625,-51.75 l 0.359375,-1.59375 0.203125,-1.546875 0.34375,-1.453125 0.0625,-1.671875 -0.046875,-0.84375 0.375,-0.890625 -0.09375,-1.96875 0.5625,-2.859375 0.234375,-1.015625 0.203125,-1.5625 0.078125,-1.421875 0.390625,-0.859375 0.09375,-0.984375 0.234375,-1.015625 0.09375,-0.84375 0.09375,-1 0.375,-1 0.328125,-1.859375 0.84375,-2.875 0.71875,-2.875 0.46875,-2 0.71875,-2.4375 0.609375,-1.734375 0.765625,-2.03125 0.484375,-1.5625 0.9375,-0.890625 0.9375,-1.484375 1.046875,-1.453125 1.890625,-2.0625 0.8125,-0.75 1.78125,-0.953125 0.828125,-0.46875 2.890625,-1.40625 2.390625,-0.54688 1.8125,-0.5 0.96875,-0.20312 2.125,-0.0937 2.6875,-0.29688 2.25,-0.10937 3.546875,0.26562 1.296875,0.35938 1.421875,-0.0781 1.984375,0.1875 0.859375,0.0937 1,0.23438 0.984375,0.0937 0.609375,0.39062 1.53125,0.20313 2.03125,0.625 1.890625,1.3125 1.640625,1.328125 0.3125,0.703125 0.765625,1.21875 0.453125,0.6875 0.34375,0.984375 0.78125,1.375 0.359375,1.546875 0.21875,1.671875 0.234375,1.84375 0.203125,1.265625 0.25,2.09375 0.15625,3.109375 -0.07813,1.421875 -0.21875,1.140625 -0.1875,2.140625 -0.171875,2.265625 -0.578125,5.546875 -0.234375,1.15625 -0.515625,3.703125 -0.53125,0.59375 -1.703125,0.21875 -1.953125,0.234375 -8.90625,0.3125 -4.125,-0.359375 -1.0625,-1.515625 -0.109375,-1.96875 0.234375,-1.015625 0.4375,-2.578125 0.1875,-1.96875 0.703125,-3.140625 0.04687,-1.859375 0.1875,-2 -0.109375,-2.109375 -0.96875,-2.5 -1.59375,-0.75 -2,-0.484375 -1.546875,0.07813 -1.6875,0.375 -1.53125,0.625 -1.203125,1.609375 -0.375,0.890625 -0.375,1 -0.4375,2.4375 L 31.34375,-76 l -0.75,2.453125 0.04687,0.84375 L 30.15625,-71 l -0.3125,2.15625 -0.34375,1.703125 -0.359375,1.3125 L 29.0625,-64.84375 28.953125,-64 28.71875,-62.984375 28.546875,-61 l -0.609375,2.15625 -0.84375,5.703125 -0.07813,1.125 -0.453125,2.296875 -0.09375,1 -0.203125,1.859375 -0.234375,1.140625 -0.3125,2.125 0.15625,2.96875 -0.375,1 -0.09375,1.015625 0.04687,1.125 L 25.375,-36.5 l -0.234375,1.015625 0.1875,0.984375 -0.28125,2.96875 0.0625,1.125 -0.328125,2 -0.04687,2 0.07813,1.40625 0.171875,0.828125 0.0625,1 0.65625,2.078125 1.171875,0.9375 2.171875,0.59375 2.234375,-0.390625 2.109375,-0.109375 1.921875,-1.359375 0.53125,-0.734375 1,-2.59375 0.609375,-2.015625 0.46875,-1.859375 0.109375,-0.859375 0.109375,-0.703125 0.328125,-1.734375 0.3125,-2.125 0.234375,-1.28125 0.09375,-0.984375 0.609375,-1.890625 L 39.9375,-39.625 40.859375,-40.8125 42,-41 l 3.65625,-0.04687 2.96875,-0.140625 6.9375,0.07813 1.703125,0.04687 1.03125,0.953125 0.609375,0.96875 0.07813,1.546875 -0.234375,0.859375 0.04687,0.984375 -0.1875,1.84375 -0.0625,1.5625 -0.25,0.71875 -0.09375,1 -0.109375,0.578125 -0.28125,2.984375 -0.234375,0.859375 -0.6875,3.578125 -0.328125,1.703125 -0.09375,0.984375 -0.234375,1.015625 -0.359375,0.875 L 55.140625,-15.75 54.5,-14.03125 54.125,-13 l -0.515625,0.875 -0.65625,0.875 -0.390625,0.859375 -0.234375,0.875 -2,2.640625 -2.03125,1.921875 -2.203125,1.546875 -0.953125,0.46875 -3.625,1.015625 -1.671875,0.515625 -1.671875,0.359375 -1.828125,0.515625 -2.125,0.109375 -1.828125,0.234375 z m 0,0"
           id="path26" />
      </g>
    </g>
  </g>
  <g
     fill="#bb0e00"
     fill-opacity="1"
     id="g32"
     transform="translate(-43.714844,-26.261719)">
    <g
       transform="translate(340.08167,336.80362)"
       id="g31">
      <g
         id="g30">
        <path
           d="M 48.015625,-2.09375 46.875,-2.328125 43.0625,-2.125 l -1.546875,-0.078125 -1,0.0625 -1,-0.09375 -0.90625,-1.25 0.07813,-1.125 0.07813,-1.28125 0.21875,-1.28125 L 39.5,-8.1875 l -0.09375,-1.96875 0.421875,-3 0.09375,-0.984375 -0.0625,-0.984375 0.109375,-1.015625 0.04687,-1.828125 0.25,-0.734375 0.04687,-1.984375 0.3125,-2.125 0.15625,-2.703125 0.625,-4.28125 0.484375,-1.578125 0.234375,-1.421875 -0.07813,-1.6875 0.3125,-2 0.21875,-1.015625 0.1875,-1.96875 -0.04687,-1 0.1875,-1.703125 -1.234375,0.203125 -1,0.04687 -1.28125,-0.21875 L 34.875,-41.5 l -2.125,-0.3125 -2.421875,-0.01563 -0.09375,0.703125 -0.09375,1.125 -0.453125,2.015625 -0.203125,1.84375 -0.515625,1.03125 0.125,2.390625 -0.234375,1 -0.53125,3.28125 -0.703125,3.15625 0.1875,0.828125 -0.640625,1.75 -0.09375,0.703125 -0.484375,1.859375 -0.171875,2.125 -0.640625,4 -0.09375,1.140625 -0.3125,2 0.04687,0.984375 -0.1875,2 L 25,-6.765625 24.90625,-5.78125 24.71875,-3.640625 24.09375,-2.1875 23,-1.5625 21.71875,-1.359375 20.046875,-1.140625 17.9375,-0.75 l -1.125,0.0625 -1.015625,-0.375 -0.96875,0.1875 -0.984375,0.328125 -1.703125,-0.1875 L 7.625,-0.515625 4.796875,-0.65625 4.140625,-2.1875 4.078125,-3.3125 4.59375,-4.609375 5.203125,-6.484375 5.28125,-7.90625 5.5,-9.1875 l -0.046875,-0.984375 0.234375,-0.875 -0.328125,-0.96875 0.75,-1.578125 0.234375,-1.015625 -0.203125,-1.125 L 6.609375,-17.75 6.375,-19.6875 l 0.53125,-1.03125 0.5,-1.296875 0.078125,-1 -0.046875,-1.125 0.328125,-2.015625 0.21875,-1.140625 0.453125,-4.96875 0.25,-0.859375 0.09375,-0.84375 0.234375,-1.15625 -0.1875,-0.984375 0.46875,-2 0.046875,-1.84375 0.359375,-1.4375 0.1875,-1.703125 -0.046875,-0.984375 0.171875,-2.125 0.375,-1.015625 0.375,-1.15625 -0.0625,-1.125 0.484375,-2 0.5,-4.140625 0.09375,-0.859375 0.1875,-1.96875 0.04687,-1.984375 0.734375,-2.03125 0.09375,-1 0.04687,-1.984375 0.4375,-3 0.1875,-1.828125 0.21875,-1.140625 0.28125,-2.984375 0.109375,-0.71875 -0.109375,-1.96875 0.515625,-1.171875 0.07813,-1.140625 0.09375,-0.84375 0.328125,-1.859375 -0.15625,-2.953125 0.90625,-1.90625 -0.234375,-1.953125 0.234375,-1.015625 0.09375,-0.984375 0.375,-1.015625 -0.203125,-1.125 0.234375,-1 0.328125,-1.859375 0.0625,-1.6875 0.0625,-1.5625 1.25,-0.78125 3.53125,-0.17188 5.765625,-0.42187 1.984375,0.0469 3.109375,-0.15625 1.390625,-0.5 1.703125,0.20313 1.4375,0.21875 0.34375,1.265625 0.04687,0.84375 0.1875,0.96875 -0.34375,1.71875 -0.09375,0.84375 L 37,-93.125 l -0.359375,1.296875 -0.07813,1.28125 -0.4375,2.703125 -0.1875,2 -0.04687,1.703125 -0.375,1 0.109375,2.265625 -0.234375,1 -0.21875,1.125 -0.0625,1.859375 -0.234375,0.71875 -0.0625,1.703125 0.04687,0.84375 -0.25,0.71875 -0.234375,1.15625 -0.07813,0.96875 -0.40625,0.875 0.1875,0.984375 -0.328125,1.859375 -0.234375,1.015625 0.1875,0.828125 -0.21875,1.140625 -0.109375,0.875 -0.21875,1.125 0.984375,0.09375 1.140625,-0.04687 4.109375,-0.0625 1.109375,-0.203125 1.703125,0.0625 1.109375,-0.203125 h 2.984375 l 0.109375,-0.71875 0.21875,-1.578125 0.5,-1.28125 L 47.0625,-67 l 0.09375,-1.015625 0.609375,-2.15625 L 47.4375,-71 l 0.609375,-1.84375 0.09375,-0.875 0.09375,-0.984375 0.09375,-1.140625 0.09375,-1 0.234375,-0.859375 -0.04687,-0.984375 0.34375,-1.859375 L 49,-82.40625 l 0.5,-1.296875 -0.07813,-1.6875 -0.20312,-1.109375 0.09375,-1 0.46875,-2 -0.0625,-1.125 0.328125,-1.875 0.25,-0.859375 0.1875,-1.859375 0.09375,-0.84375 0.515625,-1.296875 0.234375,-1 -0.1875,-0.96875 0.09375,-0.859375 1.046875,-1.32813 0.84375,-0.1875 1.265625,-0.20312 5.078125,-0.25 h 2.84375 l 3.953125,-0.20313 2.265625,0.17188 1.015625,0.375 1.046875,1.23437 -0.09375,0.843755 0.1875,0.984375 -0.515625,0.875 0.15625,0.546875 -0.09375,0.859375 0.04687,0.984375 -0.484375,1.734375 -0.03125,1.984375 0.04687,1.125 -0.09375,0.984375 L 69.5,-88.640625 69.25,-87.5 l -0.04687,1.84375 0.04687,0.984375 -0.1875,1.859375 -0.09375,0.984375 -0.328125,1.859375 -0.09375,1 -0.234375,1 -0.07813,1.140625 -0.1875,1.84375 -0.109375,0.875 -0.609375,1.703125 -0.125,0.84375 -0.1875,1.859375 -0.171875,2.28125 -0.03125,2.109375 -0.59375,2.03125 -0.03125,2.125 -0.09375,0.859375 -0.328125,1.984375 -0.09375,0.984375 -0.515625,0.875 0.04687,1.140625 0.328125,0.96875 -0.375,0.875 -0.109375,1 0.09375,1.828125 -0.09375,1.015625 -0.609375,1.859375 -0.09375,0.984375 -0.4375,2.5625 0.04687,0.859375 -0.203125,1.5625 -0.328125,2 -0.234375,1 0.1875,0.84375 -0.71875,3 0.1875,0.84375 -0.234375,1 -0.23436,0.859375 -0.09375,1 -0.328125,2 0.0625,1.140625 -0.09375,0.984375 -0.328125,2 -0.34375,1.578125 -0.234375,0.859375 -0.04687,1.96875 -0.03125,2.265625 -0.328125,2.015625 -0.09375,0.984375 -0.203125,1.84375 -0.21875,1.015625 -0.07813,1.546875 -0.1875,1.71875 -0.390625,0.71875 -0.07813,1.125 -0.234375,1.015625 0.04687,1.125 -0.21875,1.015625 -0.546875,0.875 -1.640625,0.5 -2.125,0.109375 -0.84375,0.171875 -1.84375,0.234375 -2.828125,0.140625 z m 0,0"
           id="path29" />
      </g>
    </g>
  </g>
  <g
     fill="#bb0e00"
     fill-opacity="1"
     id="g35"
     transform="translate(-43.714844,-26.261719)">
    <g
       transform="translate(399.94061,333.83877)"
       id="g34">
      <g
         id="g33">
        <path
           d="M 16.390625,-0.53125 12.5625,-0.625 8.75,-0.4375 6.765625,-0.46875 6.1875,-0.875 5.453125,-1.671875 l -0.0625,-1 L 5.4375,-4.8125 5.53125,-5.65625 5.1875,-6.890625 l 0.359375,-1.3125 0.09375,-0.984375 0.046875,-1.859375 0.328125,-1.5625 0.203125,-1.71875 0.234375,-1 0.328125,-2 0.09375,-1.140625 -0.046875,-0.96875 0.359375,-1.015625 0.09375,-1.125 0.046875,-2 0.3125,-1.984375 0.234375,-1.15625 0.078125,-1.140625 0.109375,-0.84375 0.03125,-1.984375 0.25,-0.859375 0.171875,-2.125 0.03125,-2.28125 0.46875,-2.140625 -0.0625,-1.125 0.1875,-2 0.5625,-2.859375 -0.0625,-1.265625 0.09375,-0.84375 0.34375,-1.71875 -0.1875,-0.84375 0.359375,-1.28125 0.234375,-1.15625 0.1875,-1.703125 0.0625,-1.703125 -0.04687,-0.984375 0.25,-0.875 0.09375,-1 0.1875,-1.84375 0.109375,-0.84375 0.359375,-1.015625 0.34375,-1.71875 0.04687,-1.828125 0.1875,-1.859375 0.25,-0.859375 0.171875,-2 0.109375,-0.828125 0.1875,-2 0.09375,-1.140625 0.328125,-1.859375 0.234375,-1 0.234375,-0.859375 -0.04687,-1 0.109375,-0.84375 0.625,-4.265625 -0.04687,-0.859375 0.0625,-1.84375 L 14.75,-87.625 l 0.34375,-1.578125 0.109375,-1 0.328125,-1.859375 -0.1875,-1.125 0.234375,-1 0.0625,-1.546875 0.5,-1.296875 -0.04687,-0.984375 0.75,-1.75 1.421875,-0.203125 1.96875,-0.10938 2.671875,-0.26562 2.421875,0.0156 2.390625,-0.10937 2.53125,-0.26563 h 2.84375 l 1.828125,-0.0937 0.921875,1.23438 0.609375,3.921875 0.328125,0.96875 0.390625,1.96875 0.171875,0.84375 0.53125,1.953125 0.25,2.40625 0.53125,2.21875 0.375,1.828125 0.234375,1.96875 0.34375,0.96875 0.04687,1.125 0.734375,2.9375 0.15625,0.859375 0.390625,1.953125 0.04687,1 0.1875,0.984375 0.453125,0.796875 0.234375,1.84375 0.04687,0.84375 0.234375,1.828125 0.515625,1.953125 0.04687,1 0.515625,1.953125 0.828125,4.765625 0.65625,1.953125 0.04687,0.84375 0.1875,0.984375 0.04687,1 0.328125,0.828125 0.359375,1.8125 0.703125,2.65625 0.421875,-0.01563 1.671875,-3.625 0.375,-0.71875 0.53125,-0.875 1.03125,-2.328125 0.375,-1 0.875,-2.03125 0.78125,-1.46875 0.9375,-1.296875 -0.04687,-0.84375 0.859375,-2.171875 0.78125,-1.3125 0.515625,-1.453125 0.890625,-1.890625 0.796875,-0.890625 0.484375,-1.703125 1.1875,-1.90625 0.515625,-0.859375 0.109375,-0.875 1.296875,-2.171875 2.546875,-5.796875 0.53125,-0.875 1.765625,-4.046875 0.75,-1.875 1.046875,-2.03125 L 68.31248,-92.2656 69.078125,-94 69.609375,-94.875 70,-95.609375 l 0.25,-0.578125 0.09375,-0.859375 0.53125,-0.859375 0.609375,-1.734375 0.9375,-1.453125 0.625,-1.45313 3.375,-0.45312 3.390625,-0.0312 2.25,-0.25 4.828125,0.0469 2.8125,-0.28125 L 91,-102.73438 91.34375,-101.75 91,-99.890625 l -0.234375,0.84375 -0.04687,1.984375 -0.109375,0.5625 -0.09375,1.015625 -0.09375,0.84375 -0.09375,1 -0.125,0.4375 0.109375,1.96875 -0.25,0.859375 -0.09375,1.015625 -0.609375,1.859375 0.0625,1.125 -0.328125,1.984375 -0.234375,0.875 -0.0625,1.6875 0.1875,0.859375 -0.515625,1.015625 0.125,2.40625 -0.390625,0.859375 -0.625,1.875 -0.09375,0.859375 -0.1875,1.984375 -0.03125,2.25 -0.5,1.171875 -0.07813,1.265625 0.04687,0.84375 -0.09375,1.015625 -0.25,0.859375 -0.328125,1.859375 -0.1875,1.96875 -0.34375,1.71875 -0.109375,0.859375 -0.07813,0.984375 L 85,-55.4375 l -0.0625,1.5625 -0.03125,2.109375 -0.515625,1.03125 0.04687,0.984375 0.1875,0.984375 -0.09375,0.828125 -0.09375,1.015625 -0.09375,0.84375 L 84,-44.21875 l -0.671875,1.03125 0.5,1.09375 -0.1875,2.140625 -0.328125,2.015625 0.04687,0.84375 -0.1875,1.828125 -0.609375,2.15625 -0.09375,1 -0.3125,2.125 -0.09375,1.015625 -0.07813,1.125 -0.1875,2 -0.25,0.859375 L 81.359375,-23 81.28125,-21.859375 80.953125,-20 l -0.07813,0.984375 -0.25,0.859375 -0.04687,1.859375 -0.09375,0.984375 0.04687,1 -0.328125,1.84375 -0.07813,1.15625 -0.328125,1.96875 -0.328125,1.875 -0.203125,1.828125 -0.359375,1.3125 -1.953125,0.65625 -1.5625,0.078125 -4.234375,0.0625 -6.203125,0.3125 -1.984375,0.234375 -0.703125,-0.09375 -1,0.046875 L 60.25,-3.6875 l -0.359375,-1.546875 -0.1875,-0.984375 0.09375,-0.84375 0.328125,-2.015625 0.09375,-0.96875 0.171875,-2.140625 0.21875,-1.140625 0.1875,-2 0.1875,-2.140625 0.328125,-1.984375 0.46875,-1.875 0.04687,-1.828125 0.484375,-1.71875 0.328125,-1.859375 -0.09375,-1.984375 0.1875,-1.84375 0.375,-1.015625 0.07813,-1.703125 0.09375,-0.84375 0.09375,-1 0.34375,-1.5625 0.09375,-1 -0.04687,-0.859375 0.234375,-1 0.859375,-5.5625 0.28125,-2.546875 0.34375,-2 0.109375,-0.859375 0.21875,-1 0.40625,-3.421875 -0.421875,0.01563 -3.84375,8.546875 -2.890625,7.359375 -1.625,4.328125 -2.796875,5.9375 -3.421875,8.515625 -0.90625,1.75 -0.625,1.4375 -1.546875,0.359375 -0.84375,0.04687 -1.28125,-0.21875 -3.078125,0.4375 -2.71875,-0.296875 -1.28125,-0.07813 -1.734375,-0.75 -0.1875,-1 -0.828125,-2.34375 -0.203125,-1.125 -0.328125,-0.96875 -0.203125,-1.125 -0.1875,-0.984375 -0.328125,-0.984375 -0.40625,-2.390625 -0.421875,-2.953125 -0.328125,-0.828125 -0.515625,-1.953125 -0.375,-1.8125 -1.15625,-5.890625 -0.421875,-2.953125 -0.390625,-2.09375 -0.1875,-0.984375 -0.171875,-0.84375 -0.890625,-6.46875 -0.5625,0.01563 -0.421875,5.84375 0.09375,1.703125 -0.453125,2.25 -0.3125,5.265625 -0.09375,1 -0.234375,0.859375 0.140625,2.6875 -0.09375,1 -0.1875,1.84375 -0.109375,0.84375 -0.234375,1 -0.1875,2 -0.203125,1.703125 0.04687,1 -0.04687,1.96875 -0.171875,2 0.03125,0.84375 -0.46875,1.71875 -0.09375,1.140625 -0.07813,1.28125 -0.15625,2.265625 -0.1875,2 -0.09375,0.84375 -0.34375,1.734375 0.09375,1.84375 -0.04687,1.8125 -0.390625,1 -0.109375,0.875 -0.0625,1.40625 -0.765625,1.609375 -1.671875,0.78125 -4.21875,0.21875 -0.70313,0.171875 z m 0,0"
           id="path32" />
      </g>
    </g>
  </g>
  <g
     fill="#bb0e00"
     fill-opacity="1"
     id="g38"
     transform="translate(-43.714844,-26.261719)">
    <g
       transform="translate(479.98807,329.87397)"
       id="g37">
      <g
         id="g36">
        <path
           d="m 34.265625,0.578125 -3.671875,-0.25 -1.828125,0.234375 -1,-0.09375 L 26.484375,0.390625 23.1875,-0.4375 22.046875,-0.53125 19.90625,-0.984375 18.890625,-1.5 16.859375,-2.6875 14.203125,-4.671875 12.109375,-6.828125 11.65625,-7.5 10.921875,-8.1875 10.453125,-9 9.6875,-9.953125 8.46875,-11.75 8.4375,-12.59375 7.953125,-13.546875 7.78125,-14.40625 7.453125,-15.09375 7.140625,-15.921875 6.953125,-16.90625 6.609375,-17.75 6.375,-19.6875 6.1875,-20.546875 5.625,-23.34375 l 0.234375,-1 -0.140625,-2.6875 0.359375,-1.4375 -0.203125,-1.125 -0.046875,-0.984375 0.140625,-3.109375 0.46875,-2.015625 -0.046875,-1.125 0.171875,-2 -0.046875,-0.984375 0.46875,-2.015625 -0.3125,-0.6875 0.1875,-1.859375 0.234375,-0.984375 0.296875,-2.5625 L 7.71875,-49.625 7.625,-51.46875 7.984375,-53.203125 7.9375,-54.1875 l 0.375,-0.859375 0.234375,-1 L 8.5,-56.90625 8.734375,-57.890625 8.5625,-58.71875 l 0.765625,-1.46875 0.234375,-1 -0.09375,-1.984375 0.1875,-1.703125 0.375,-1.015625 0.109375,-0.84375 0.1875,-2 0.390625,-3.546875 0.65625,-1.015625 0.1875,-1.859375 0.75,-1.875 0.375,-1.015625 0.5,-1.71875 0.609375,-2.015625 0.75,-1.71875 0.5,-1.03125 1.1875,-1.890625 0.09375,-1 0.515625,-0.875 1.046875,-1.90625 1.046875,-1.734375 0.953125,-0.75 0.65625,-0.90625 1.890625,-2.203125 1.78125,-1.359375 1.09375,-0.46875 0.953125,-0.75 1.640625,-1.09375 1.640625,-0.92188 2.09375,-0.67187 0.84375,-0.1875 2.09375,-0.65625 L 36,-102.125 l 2.5,-0.54688 1.96875,-0.25 1.6875,-0.21875 h 2.5625 l 0.84375,0.125 1.5625,0.0625 2.28125,0.17188 1.140625,0.35937 1.140625,0.0937 0.84375,0.23438 2.171875,0.875 2.640625,1.578125 1.15625,0.65625 0.75,0.796875 1.625,1.1875 1.609375,1.328125 0.765625,0.828125 0.46875,0.96875 0.9375,1.78125 0.453125,0.84375 0.3125,0.828125 0.328125,0.96875 0.53125,2.109375 0.4375,2.65625 0.1875,1.109375 0.04687,1 -0.04687,1.84375 -0.109375,0.859375 0.25,1.828125 0.04687,1 -0.0625,1.828125 -0.234375,1 -0.109375,0.875 0.203125,0.953125 0.0625,1.421875 -0.09375,0.859375 -0.1875,1.96875 -0.03125,2.140625 -0.03125,2.265625 -0.21875,1 -0.171875,2.28125 0.21875,1.390625 -0.625,1.59375 0.21875,1.6875 -0.46875,1.859375 -0.1875,1.859375 -0.359375,1.859375 -0.04687,1.703125 -0.328125,1.84375 -0.390625,0.875 -0.296875,2.5625 0.0625,1.265625 -0.234375,1 -0.171875,2 -0.390625,0.859375 -1.171875,5.015625 0.1875,0.828125 -0.625,1.734375 -0.375,0.875 -0.0625,1.5625 -0.625,1.578125 -0.359375,1.734375 0.04687,0.984375 -0.34375,1.578125 -0.65625,1 -0.0625,1.421875 -0.890625,2.03125 -1.015625,2.609375 -0.65625,1.015625 -1.15625,1.90625 -0.53125,0.875 -0.671875,0.875 -0.234375,0.875 -1.609375,1.75 -0.8125,0.75 -0.671875,0.890625 -1.640625,1.34375 -1.625,1.234375 L 47.10937,-3.171925 43.9375,-1.75 42.953125,-1.5625 41.84375,-1.21875 39.875,-0.703125 38.890625,-0.515625 37.359375,0 Z M 32.1875,-18.59375 l 1.84375,-0.09375 1.9375,-0.65625 1.265625,-0.625 1.890625,-1.484375 0.90625,-2.03125 0.75,-2.03125 0.234375,-1 -0.0625,-1.140625 0.3125,-2.125 0.234375,-1.015625 0.1875,-1.984375 0.375,-1.140625 0.04687,-1.984375 0.359375,-1.015625 0.328125,-1.84375 0.07813,-1.15625 0.390625,-0.859375 -0.0625,-1.125 -0.15625,-0.421875 0.359375,-1.296875 0.3125,-2.125 0.125,-3.265625 0.375,-1.296875 0.359375,-1.140625 0.15625,-2.703125 0.375,-0.875 -0.265625,-2.390625 0.46875,-2.140625 0.1875,-1.71875 0.234375,-1.125 0.234375,-1 -0.1875,-1 0.04687,-1.828125 0.21875,-1.15625 0.34375,-2 0.21875,-1.28125 -0.09375,-1.8125 0.15625,-2.5625 0.04687,-1.859375 0.1875,-1.984375 -0.703125,-2.796875 -0.625,-0.828125 -1.046875,-1.21875 -2.3125,-0.859375 -2.640625,0.28125 L 38.4375,-84 l -2.21875,0.953125 -1.34375,1.34375 -0.90625,1.609375 -0.5,1.734375 -0.5,1.015625 -0.765625,1.859375 -0.21875,1.015625 -0.234375,1.140625 -0.71875,3 0.01563,0.28125 -0.07813,1.140625 -0.328125,2 -0.09375,0.859375 -0.46875,2 -0.328125,2 -0.296875,2.296875 -0.09375,0.984375 -0.234375,0.984375 -0.171875,2.140625 -0.375,1.140625 -0.453125,2.296875 -0.234375,1 -0.171875,2 0.04687,0.984375 -0.09375,1 0.203125,1.125 -0.375,0.984375 -0.609375,2.015625 0.203125,1.140625 -0.234375,1 0.15625,0.546875 -0.21875,1.28125 0.0625,1.140625 -0.25,1 0.0625,1.140625 -0.3125,2.125 0.04687,0.984375 -0.375,1.015625 0.46875,0.953125 -0.0625,1.71875 -0.484375,1.4375 0.46875,0.96875 0.1875,3.953125 0.484375,0.96875 0.296875,0.546875 0.921875,1.21875 0.75,0.671875 1.140625,0.375 1.140625,0.21875 z m 0,0"
           id="path35" />
      </g>
    </g>
  </g>
  <g
     fill="#bb0e00"
     fill-opacity="1"
     id="g41"
     transform="translate(-43.714844,-26.261719)">
    <g
       transform="translate(537.30578,327.03499)"
       id="g40">
      <g
         id="g39">
        <path
           d="M 7.203125,-0.078125 5.09375,-0.25 4.296875,-1.921875 4.53125,-3.0625 4.421875,-5.328125 l 0.171875,-2.25 0.453125,-2 0.09375,-1 0.328125,-2 0.234375,-0.71875 0.328125,-2 L 6.25,-16.578125 6.546875,-18.875 6.5,-19.84375 6.75,-21 l -0.09375,-1.828125 0.515625,-1.015625 0.046875,-1.703125 0.09375,-1 0.34375,-1.71875 L 7.75,-29.125 7.5625,-30.109375 7.75,-31.953125 8.203125,-34.21875 8.40625,-35.9375 8.625,-37.21875 8.984375,-38.796875 9.171875,-40.5 l 0.09375,-1.015625 0.25,-0.859375 0.046875,-1.84375 0.09375,-0.84375 -0.046875,-0.84375 0.625,-1.734375 0.09375,-0.84375 0.09375,-1 0.04687,-1.984375 0.0625,-1.421875 0.640625,-1.734375 0.21875,-1.140625 0.21875,-1.4375 -0.09375,-1.953125 0.07813,-1.140625 0.375,-1.140625 -0.0625,-1.140625 0.375,-1.015625 -0.04687,-0.984375 0.234375,-1.015625 0.1875,-1.84375 0.34375,-1.578125 0.375,-1.265625 -0.09375,-1.703125 0.09375,-1 0.25,-0.859375 0.5,-4 -0.04687,-0.984375 0.5,-1.296875 0.21875,-1.296875 0.04687,-1.8125 0.07813,-1 0.09375,-0.859375 0.09375,-0.984375 0.25,-0.875 0.09375,-1 0.1875,-1.859375 0.203125,-1.6875 0.328125,-1.875 -0.04687,-1.125 0.328125,-1.84375 0.234375,-0.859375 0.390625,-0.71875 0.78125,-1.609375 1.390625,-0.359375 1.984375,-0.234375 2.390625,0.0312 1.28125,-0.0625 1.828125,-0.23438 h 2.671875 l 1.703125,-0.21875 2.125,0.0312 1.96875,-0.0937 1.578125,0.34375 0.921875,1.23438 0.1875,0.984375 0.625,1.375 0.375,1.671875 0.21875,1.5625 0.65625,1.9375 0.71875,3.359375 0.546875,2.25 0.53125,2.359375 0.515625,1.96875 0.71875,2.796875 0.34375,1.109375 0.1875,0.984375 0.390625,2.109375 0.515625,1.828125 0.03125,0.84375 0.5,1.5 0.04687,1 0.21875,1.546875 0.53125,2.109375 0.40625,2.390625 0.53125,2.359375 0.25,2.25 0.40625,1.96875 0.328125,1.109375 0.609375,3.8125 0.734375,3.21875 0.4375,3.078125 0.04687,0.984375 0.328125,0.96875 0.359375,1.6875 0.609375,3.796875 0.59375,3.09375 0.421875,-0.03125 V -37.9375 l 0.109375,-3.40625 -0.09375,-1.984375 0.09375,-6.78125 0.265625,-3 -0.234375,-4.796875 0.328125,-1.984375 0.09375,-0.859375 0.09375,-1 0.07813,-1.125 0.04687,-2 0.25,-0.859375 0.1875,-2 -0.04687,-0.84375 0.484375,-1.859375 -0.09375,-1.6875 0.0625,-1.703125 -0.04687,-0.984375 0.734375,-1.75 -0.1875,-0.96875 0.296875,-2.5625 -0.03125,-0.84375 0.328125,-1.875 0.09375,-0.984375 0.25,-0.859375 0.1875,-1.984375 0.07813,-1.140625 0.328125,-2 0.234375,-1 0.359375,-1.15625 -0.0625,-1.265625 0.09375,-0.859375 0.3125,-2.28125 0.421875,-2.984375 1.03125,-2.031255 0.546875,-0.45312 2.65625,-0.70313 2.984375,0.14063 0.96875,-0.1875 1.421875,-0.0781 3.25,-0.0156 1.40625,-0.0625 1.984375,-0.25 2,0.32812 0.859375,0.375 0.203125,1.14063 0.0625,1.125 -0.328125,1.984375 0.203125,1.125 -0.28125,3.125 -0.171875,2 -0.703125,3.4375 -0.34375,1.5625 -0.296875,2.5625 -0.21875,1.140625 -0.28125,3 -0.453125,2.28125 -0.171875,2.265625 -0.359375,1.3125 -0.234375,1.125 -0.234375,1 0.09375,1.84375 L 72,-69.25 l -0.34375,4.28125 -0.359375,1.296875 -0.0625,1.5625 -0.09375,0.984375 -0.234375,1.125 -0.34375,1.875 -0.234375,1 L 70,-55.265625 l -0.1875,1.984375 -0.21875,1.15625 0.203125,1.25 -0.234375,0.875 -0.09375,1 -0.234375,0.859375 -0.09375,0.96875 -0.109375,0.859375 0.09375,1.828125 -0.375,0.890625 -0.34375,1.984375 -0.21875,1.296875 -0.07813,1.265625 -0.09375,0.859375 -0.09375,1 -0.09375,0.859375 0.03125,0.84375 -0.4375,2 -0.1875,1.984375 -0.21875,1.421875 -0.5,1.3125 -0.484375,1.71875 -0.0625,1.5625 -0.04687,1.84375 -0.203125,1.84375 -0.359375,1.140625 -0.46875,2.015625 L 65,-16.375 l -0.609375,1.859375 0.04687,0.859375 -0.234375,1 -0.34375,1.84375 -0.484375,4.5625 -1.171875,1.765625 -1.375,1.046875 -1.96875,0.234375 -1.546875,0.359375 -0.546875,0.03125 h -2.6875 L 53.093745,-2.625 51.67187,-2.703125 50.82812,-2.515625 48,-2.375 46.15625,-2.421875 43.78125,-2.3125 42.578125,-3.234375 41.34375,-5.453125 40.546875,-7.390625 40.375,-8.09375 l -0.25,-1.671875 -0.171875,-0.84375 -0.4375,-2.953125 -0.171875,-0.84375 -0.71875,-2.9375 -0.171875,-0.828125 -0.390625,-1.984375 -0.234375,-2.09375 -0.5,-1.53125 -0.53125,-2.09375 -0.04687,-0.84375 -0.515625,-1.96875 -0.203125,-0.84375 -0.515625,-1.953125 -0.1875,-0.84375 -0.09375,-2.109375 -0.703125,-2.796875 -0.421875,-2.671875 -0.75,-3.921875 -0.9375,-4.484375 -0.625,-3.9375 -1.09375,-5.046875 -1.109375,-5.296875 -0.421875,0.01563 0.04687,3.953125 v 2.828125 L 29.15625,-54.25 29,-51.828125 l 0.03125,3.546875 -0.65625,6.828125 -0.28125,5.546875 -0.25,0.84375 -0.328125,1.859375 0.328125,0.96875 -0.328125,1.703125 -0.234375,1.015625 0.1875,0.984375 -0.09375,0.84375 -0.203125,2 -0.453125,2.15625 -0.421875,2.859375 -0.1875,1.96875 -0.09375,0.859375 -0.234375,1 -0.359375,4.125 -0.328125,1.859375 -0.109375,0.984375 0.09375,1.84375 -0.25,0.84375 -0.296875,2.578125 -0.46875,1.703125 -0.359375,1.453125 -1.53125,0.640625 z m 0,0"
           id="path38" />
      </g>
    </g>
  </g>
  <g
     fill="#bb0e00"
     fill-opacity="1"
     id="g44"
     transform="translate(-43.714844,-26.261719)">
    <g
       transform="translate(602.24713,323.81841)"
       id="g43">
      <g
         id="g42">
        <path
           d="M 29.953125,-1.203125 26.6875,-1.1875 24.84375,-1.234375 23.015625,-1 l -2.125,-0.171875 -1.703125,0.21875 -1.109375,-0.078125 -1.265625,0.0625 -2,-0.1875 -0.859375,-0.09375 -1.140625,0.046875 -0.96875,0.1875 -4.234375,0.21875 -1.984375,-0.1875 -1.140625,-0.21875 -0.15625,-3.25 L 4.40625,-5.75 l 0.609375,-1.703125 0.1875,-2 0.09375,-0.84375 L 5.625,-12.3125 5.828125,-13.734375 6.046875,-14.875 5.984375,-16 l 0.1875,-2 0.078125,-1.140625 0.21875,-1.5625 0.515625,-1.15625 0.203125,-1.421875 -0.046875,-1.125 0.328125,-2.015625 0.21875,-1.140625 0.046875,-1.84375 0.109375,-0.859375 0.5,-1 -0.140625,-3.09375 0.3125,-2.015625 0.09375,-1.125 0.328125,-2 0.09375,-1 0.203125,-1.859375 0.21875,-1 0.34375,-1.703125 0.09375,-0.84375 0.484375,-1.734375 -0.140625,-2.828125 0.234375,-1 0.234375,-0.859375 0.34375,-2 0.234375,-0.859375 0.515625,-3.984375 0.375,-1.015625 0.21875,-1 0.09375,-0.984375 -0.03125,-0.859375 0.09375,-1 0.1875,-1.71875 0.09375,-0.984375 0.34375,-1.71875 -0.04687,-0.84375 0.21875,-1.6875 0.46875,-1.734375 -0.09375,-1.984375 0.07813,-1.140625 0.140625,-2.96875 0.203125,-1.71875 0.578125,-2.5625 0.203125,-1 -0.03125,-0.84375 0.09375,-1 0.34375,-1.859375 0.171875,-2 0.203125,-1.703125 0.375,-0.859375 0.09375,-1.015625 0.0625,-1.6875 0.234375,-1 0.34375,-1.421875 0.265625,-0.4375 0.34375,-1.59375 1.40625,-0.484375 0.984375,-0.0469 1.703125,0.0469 1,0.09375 2.25,-0.39063 1.125,-0.0625 h 3.09375 l 2.828125,-0.28125 3.53125,-0.1875 1.5625,0.0781 0.84375,-0.1875 2.25,-0.10938 1.125,0.0781 1.296875,0.0781 2.109375,0.17188 1,-0.0469 1.15625,0.375 2.015625,0.468755 0.28125,-0.01563 0.859375,0.25 2.421875,0.578125 0.71875,0.390625 0.578125,0.25 1.46875,0.78125 1.015625,0.65625 0.875,0.65625 2.265625,2.71875 1.21875,1.640625 0.609375,0.6875 0.765625,1.234375 0.65625,1.953125 0.953125,2.0625 0.625,0.953125 0.53125,2.390625 0.0625,0.984375 0.796875,1.953125 -0.09375,0.984375 0.421875,2.8125 0.21875,1.828125 -0.375,0.875 0.515625,1.9375 0.171875,0.84375 -0.07813,1 0.328125,0.96875 -0.09375,1 0.04687,0.84375 -0.296875,2.296875 0.04687,0.984375 -0.17187,2.42198 -0.07813,0.96875 0.1875,3.953125 -0.59375,2.296875 0.04687,1 -0.4375,2.703125 L 65,-47.9375 l -0.125,3.25 -0.234375,1.15625 -0.359375,1.140625 -0.07813,1.421875 -0.6875,3 -0.04687,1.859375 -0.203125,1.703125 -0.390625,1 -0.890625,1.890625 -0.234375,0.859375 -0.0625,1.546875 -0.765625,1.890625 -0.09375,0.859375 -0.484375,2 -0.875,2.03125 -0.84375,2.875 -0.640625,1.4375 -1.078125,1.171875 -0.109375,0.875 -0.625,1.015625 -0.671875,0.875 -0.90625,1.75 -1.859375,2.515625 -1.90625,1.625 L 49.625,-7 48.78125,-6.375 47,-5.4375 l -1.546875,0.484375 -1.34375,1.0625 -1.953125,0.671875 -1.390625,0.359375 -2.25,0.390625 -1.53125,0.640625 -4.375,0.21875 -0.984375,0.1875 -0.703125,0.03125 z M 28.4375,-20.375 l 4.21875,-0.21875 1.40625,-0.46875 1.09375,-0.640625 1.515625,-0.921875 0.671875,-0.59375 1.078125,-1.171875 0.921875,-1.1875 0.40625,-0.875 0.5,-1.015625 0.5,-1.4375 0.640625,-1.453125 0.609375,-1.875 0.703125,-2.71875 0.34375,-1.5625 0.328125,-2 0.46875,-1.875 0.09375,-0.84375 0.25,-0.71875 0.25,-0.859375 0.34375,-1.734375 0.09375,-0.984375 0.1875,-1.84375 0.1875,-2 0.171875,-2.125 0.09375,-1 L 45.75,-53.640625 46.34375,-55.65625 46.25,-57.625 l 0.28125,-2.984375 0.09375,-0.859375 0.15625,-2.984375 -0.296875,-2.96875 -0.0625,-4.09375 -0.484375,-3.78125 -0.203125,-1.140625 -0.953125,-2.34375 -1.078125,-1.796875 -0.875,-0.65625 -0.75,-0.53125 -2.40625,-0.59375 -2.28125,-0.171875 -1.859375,-0.04687 -1.25,0.203125 -0.375,1.15625 -0.375,1 0.03125,0.84375 -0.234375,1.015625 -0.3125,2.140625 -0.46875,2 -0.1875,1.859375 -0.1875,1.96875 -0.125,3.125 -0.09375,0.859375 -0.234375,1 0.04687,0.984375 -0.07813,1.15625 -0.390625,0.859375 0.03125,0.84375 -0.3125,2.015625 -0.171875,2.234375 0.04687,1 -0.328125,2 -0.234375,0.875 -0.32811,1.98437 0.04687,0.859375 -0.328125,1.984375 -0.234375,1.015625 0.1875,0.84375 -0.234375,1 -0.375,3.703125 0.07813,1.828125 -0.09375,0.84375 -0.609375,2.015625 0.04687,0.84375 -0.3125,2.15625 -0.4375,2.546875 -0.09375,1 -0.484375,2.015625 -0.171875,2.140625 -0.03125,2.109375 -0.3125,2.421875 -0.21875,1.296875 z m 0,0"
           id="path41" />
      </g>
    </g>
  </g>
  <g
     transform="translate(182.28516,241.73828)"
     id="g49">
    <g
       clip-path="url(#c94eb95343)"
       id="g48">
      <g
         fill="#bb0e00"
         fill-opacity="1"
         id="g47">
        <g
           transform="translate(16.40014,315.32412)"
           id="g46">
          <g
             id="g45">
            <path
               d="M 69.984375,-2.90625 62.375,-2.84375 58.0625,-2.953125 53.796875,-2.40625 48.8125,-2.8125 44.875,-2.28125 42.203125,-2.46875 39.25,-2.328125 34.59375,-2.75 l -2,-0.234375 -2.625,0.125 -2.296875,0.46875 -9.890625,0.5 -4.65625,-0.4375 -2.6875,-0.515625 -0.375,-7.578125 0.171875,-3 1.4375,-4.046875 0.4375,-4.640625 0.234375,-2 0.75,-4.671875 0.5,-3.328125 0.515625,-2.6875 -0.125,-2.640625 0.421875,-4.65625 0.1875,-2.640625 0.484375,-3.671875 1.171875,-2.703125 0.484375,-3.328125 -0.125,-2.625 L 17.375,-61.75 17.890625,-64.4375 18,-68.734375 l 0.25,-1.984375 1.1875,-2.375 -0.375,-7.265625 0.765625,-4.671875 0.203125,-2.65625 0.75,-4.671875 0.203125,-2.328125 0.453125,-4.328125 0.546875,-2.343755 0.78125,-3.98437 0.21875,-2 1.140625,-4.04688 -0.34375,-6.59375 0.53125,-2.34375 0.5625,-2.01562 0.75,-4.67188 0.5625,-1.99999 1.1875,-9.34375 0.859375,-2.34375 0.5625,-2.34375 L 29,-145.375 l -0.09375,-1.98437 0.203125,-2.32813 0.453125,-3.96875 0.21875,-2.32812 0.796875,-4.03125 L 30.46875,-162 l 0.46875,-3.98437 1.125,-4.01563 -0.234375,-4.625 0.1875,-2.64062 0.3125,-6.96875 0.4375,-4 1.34375,-6.03125 0.546875,-2.34375 -0.109375,-1.98438 0.234375,-2.3125 0.765625,-4.34375 0.421875,-4.65625 0.46875,-3.98437 0.890625,-2.03125 0.203125,-2.32813 0.125,-3.98437 0.5625,-2.34375 0.8125,-3.32813 0.609375,-1.03125 0.8125,-3.6875 3.234375,-1.15625 2.3125,-0.125 3.984375,0.125 2.328125,0.21875 5.234375,-0.92187 2.640625,-0.14063 7.28125,-0.0469 6.578125,-0.65625 8.25,-0.42188 3.65625,0.14063 1.953125,-0.42188 5.28125,-0.26562 2.65625,0.1875 2.984375,0.17187 4.968755,0.42188 2.3125,-0.10938 2.70312,0.84375 4.6875,1.09375 0.65625,-0.0312 2.01563,0.5625 5.6875,1.35938 1.70312,0.90625 1.34375,0.60937 3.40625,1.78125 2.39062,1.53125 2.0625,1.5625 5.29688,6.35938 2.82812,3.79687 1.40625,1.59375 1.79688,2.89063 1.5625,4.53125 2.23437,4.875 1.4375,2.25 1.28125,5.53125 0.10938,2.3125 1.89062,4.54687 -0.21875,2.32813 1,6.5625 0.54688,4.28125 -0.89063,2.03125 1.23438,4.5625 0.40625,1.96875 -0.1875,2.32812 0.75,2.28125 -0.20313,2.3125 0.0937,1.96875 -0.70312,5.34375 0.125,2.3125 -0.39063,5.625 -0.20312,2.32813 0.46875,9.23437 -1.39063,5.39062 0.10938,2.3125 -0.98438,6.3125 -0.40625,4.98438 -0.28125,7.625 -0.53125,2.67187 -0.84375,2.70313 -0.1875,3.3125 -1.60937,7.03125 -0.125,4.28125 -0.45313,4 -0.875,2.375 -2.07812,4.40625 -0.5625,2 -0.14063,3.65625 -1.78125,4.390625 -0.21875,2 L 141,-57.125 l -2.07813,4.75 -1.98437,6.703125 -1.46875,3.390625 -2.5,2.78125 -0.23438,2 -1.53125,2.375 -1.5625,2.0625 -2.10937,4.078125 -4.32812,5.84375 -4.4375,3.859375 -2.82813,2.796875 -1.92187,1.4375 -4.1875,2.1875 -3.5625,1.171875 -3.20313,2.46875 -4.546875,1.5625 -3.25,0.828125 -5.25,0.921875 -3.5625,1.515625 L 76.21875,-3.875 73.921875,-3.421875 72.28125,-3.34375 Z M 66.375,-47.6875 l 9.890625,-0.5 3.265625,-1.171875 2.578125,-1.453125 3.515625,-2.171875 1.59375,-1.40625 2.484375,-2.78125 2.1875,-2.734375 0.890625,-2.03125 1.203125,-2.390625 1.15625,-3.359375 1.484375,-3.390625 1.421875,-4.375 1.65625,-6.359375 0.812505,-3.671875 0.75,-4.671875 1.10937,-4.375 0.23438,-1.984375 0.5625,-1.671875 0.5625,-2.01563 0.79687,-4.01562 0.21875,-2.32813 0.4375,-4.32812 0.4375,-4.65625 0.39063,-4.96875 0.21875,-2.32813 0.51562,-2.67187 1.40625,-4.70312 -0.23437,-4.60938 0.64062,-7 0.23438,-2 0.3125,-6.95312 -0.6875,-6.90625 -0.15625,-9.59375 -1.10938,-8.875 -0.46875,-2.625 -2.25,-5.5 -2.53125,-4.1875 -2.0625,-1.53125 -1.71875,-1.25 -5.703125,-1.35938 -5.3125,-0.375 -4.3125,-0.125 -2.9375,0.48438 -0.84375,2.67187 -0.890625,2.375 0.109375,1.98438 -0.546875,2.34375 -0.75,4.98437 -1.078125,4.6875 -0.4375,4.32813 -0.4375,4.65625 -0.28125,7.29687 -0.234375,2 -0.53125,2.32813 0.109375,2.3125 -0.203125,2.65625 -0.890625,2.03125 0.109375,1.98437 -0.75,4.65625 -0.40625,5.32813 0.125,2.3125 -0.734375,4.65624 -0.5625,2.01563 -0.765625,4.67187 0.109375,1.98438 -0.75,4.65625 -0.5625,2.35937 0.453125,1.95313 -0.5625,2.35937 -0.875,8.64063 0.21875,4.296875 -0.234375,1.96875 -1.421875,4.703125 0.109375,1.984375 -0.75,5 -1.015625,6.015625 -0.203125,2.328125 -1.09375,4.671875 L 63,-62.421875 l -0.07813,4.953125 -0.71875,5.6875 -0.5,3 z m 0,0"
               id="path44" />
          </g>
        </g>
      </g>
    </g>
  </g>
  <g
     transform="translate(192.28516,254.73828)"
     id="g54">
    <g
       clip-path="url(#3b48c8fab1)"
       id="g53">
      <g
         fill="#121212"
         fill-opacity="1"
         id="g52">
        <g
           transform="translate(15.612809,295.40358)"
           id="g51">
          <g
             id="g50">
            <path
               d="m 65.578125,-2.703125 -7.140625,0.046875 -4.03125,-0.109375 -4,0.515625 -4.671875,-0.390625 -3.6875,0.5 -2.484375,-0.1875 -2.78125,0.140625 -4.375,-0.390625 -1.875,-0.21875 -2.453125,0.125 -2.15625,0.4375 -9.265625,0.46875 -4.375,-0.40625 -2.5,-0.5 -0.359375,-7.09375 0.171875,-2.8125 1.359375,-3.78125 0.390625,-4.359375 0.21875,-1.875 0.71875,-4.375 0.4375,-3.125 0.5,-2.5 -0.125,-2.46875 0.40625,-4.359375 0.171875,-2.5 L 14.125,-45.34375 15.234375,-47.875 15.6875,-51 l -0.125,-2.484375 0.703125,-4.359375 0.5,-2.515625 0.109375,-4.03125 0.21875,-1.875 1.125,-2.21875 -0.34375,-6.8125 0.703125,-4.359375 0.1875,-2.484375 0.6875,-4.390625 0.203125,-2.1875 0.421875,-4.03125 0.515625,-2.203125 0.734375,-3.75 0.21875,-1.890625 1.046875,-3.76563 -0.3125,-6.1875 0.515625,-2.20312 0.515625,-1.89063 0.71875,-4.35937 0.5,-1.89063 1.109375,-8.73437 0.828125,-2.20312 0.5,-2.20313 0.1875,-2.1875 -0.09375,-1.85937 0.203125,-2.15625 0.4375,-3.75 0.1875,-2.1875 0.75,-3.75 -0.09375,-1.85938 0.4375,-3.73437 1.046875,-3.78125 -0.21875,-4.32813 0.1875,-2.48437 0.28125,-6.53125 0.4375,-3.73438 1.265625,-5.64062 0.5,-2.20313 -0.09375,-1.85937 0.203125,-2.17188 0.703125,-4.0625 0.390625,-4.35937 0.4375,-3.75 0.828125,-1.89063 0.203125,-2.17187 0.125,-3.73438 0.515625,-2.20312 0.765625,-3.125 0.578125,-0.95313 0.75,-3.45312 3.046875,-1.09375 2.171875,-0.10938 3.71875,0.125 2.171875,0.20313 4.921875,-0.875 2.46875,-0.125 6.828125,-0.0312 6.15625,-0.625 7.734375,-0.40625 3.40625,0.14062 1.84375,-0.40625 4.953125,-0.25 2.484375,0.1875 2.796875,0.17188 4.671875,0.39062 2.171875,-0.10937 2.51563,0.79687 4.375,1.01563 0.625,-0.0312 1.89062,0.53125 5.34375,1.28125 1.57813,0.82812 1.26562,0.5625 3.1875,1.70313 2.25,1.4375 1.9375,1.4375 4.9375,5.9375 2.65625,3.59375 1.3125,1.48437 1.70312,2.70313 1.46875,4.26562 2.09375,4.54688 1.34375,2.09375 1.1875,5.20312 0.10938,2.17188 1.75,4.25 -0.1875,2.1875 0.92187,6.14062 0.51563,4.01563 -0.82813,1.90625 1.14063,4.26562 0.40625,1.84375 -0.20313,2.17188 0.73438,2.14062 -0.20313,2.1875 0.0937,1.85938 -0.67187,4.98437 0.10937,2.15625 -0.34375,5.28125 -0.20312,2.1875 0.4375,8.65625 -1.28125,5.01562 0.10937,2.17188 -0.9375,5.95312 -0.39062,4.65625 -0.26563,7.14063 -0.48437,2.5 -0.8125,2.515625 -0.14063,3.109375 -1.51562,6.578125 -0.10938,4.046875 -0.4375,3.75 -0.8125,2.1875 -1.96875,4.140625 -0.5,1.890625 -0.14062,3.421875 -1.65625,4.09375 -0.21875,1.875 -1.01563,4.40625 -1.95312,4.453125 -1.85938,6.28125 -1.39062,3.171875 -2.32812,2.609375 -0.21875,1.859375 -1.4375,2.234375 -1.4375,1.9375 -1.98438,3.828125 -4.0625,5.46875 -4.14062,3.625 -2.67188,2.609375 -1.79687,1.328125 -3.92188,2.0625 -3.34375,1.09375 -2.984375,2.3125 -4.28125,1.46875 -3.046875,0.765625 -4.921875,0.875 -3.34375,1.421875 L 71.40625,-3.625 69.265625,-3.203125 67.71875,-3.125 Z m -3.375,-42 9.265625,-0.46875 3.046875,-1.0625 2.40625,-1.359375 3.3125,-2.046875 1.484375,-1.3125 2.34375,-2.609375 2.046875,-2.578125 0.828125,-1.90625 1.109375,-2.21875 1.09375,-3.15625 1.390625,-3.171875 1.34375,-4.109375 1.5625,-5.953125 0.75,-3.453125 0.71875,-4.359375 1.015625,-4.09375 0.21875,-1.875 0.53125,-1.578125 0.53125,-1.890625 0.71875,-3.734375 0.203125,-2.1875 0.421875,-4.062505 0.390625,-4.34375 0.390625,-4.67187 0.203125,-2.1875 0.48438,-2.5 1.32812,-4.40625 -0.21875,-4.32813 0.60938,-6.53124 0.21875,-1.875 0.26562,-6.53125 -0.64062,-6.46875 -0.14063,-8.98438 -1.03125,-8.3125 -0.4375,-2.46875 -2.125,-5.15625 -2.375,-3.90625 -1.9375,-1.45312 -1.59375,-1.17188 -5.328125,-1.26562 -4.984375,-0.35938 -4.03125,-0.10937 -2.765625,0.45312 -0.8125,2.5 -0.8125,2.21875 0.09375,1.85938 -0.515625,2.20312 -0.6875,4.70313 -1.015625,4.375 -0.421875,4.04687 -0.390625,4.35938 -0.265625,6.84375 -0.21875,1.875 -0.515625,2.1875 0.109375,2.15625 -0.171875,2.48437 -0.828125,1.90625 0.09375,1.85938 -0.703125,4.375 -0.375,4.96874 0.109375,2.17188 -0.703125,4.375 -0.53125,1.875 -0.703125,4.39062 0.09375,1.85938 -0.71875,4.375 -0.515625,2.1875 0.40625,1.82812 -0.5,2.20313 -0.84375,8.09375 0.203125,4.03125 -0.203125,1.875 -1.296875,4.40625 0.09375,1.84375 -0.703125,4.6875 -0.953125,5.640625 -0.203125,2.15625 -1.015625,4.40625 -0.390625,4.671875 -0.07813,4.640625 -0.65625,5.3125 -0.484375,2.8125 z m 0,0"
               id="path49" />
          </g>
        </g>
      </g>
    </g>
  </g>
  <g
     transform="translate(197.28516,244.73828)"
     id="g59">
    <g
       clip-path="url(#8f582773ce)"
       id="g58">
      <g
         fill="#bb0e00"
         fill-opacity="1"
         id="g57">
        <g
           transform="translate(15.812508,299.01931)"
           id="g56">
          <g
             id="g55">
            <path
               d="m 66.40625,-2.75 -7.203125,0.046875 -4.09375,-0.09375 -4.046875,0.515625 -4.734375,-0.390625 -3.75,0.5 -2.5,-0.171875 -2.828125,0.140625 -4.421875,-0.40625 -1.890625,-0.21875 -2.5,0.125 -2.171875,0.421875 -9.390625,0.484375 -4.421875,-0.40625 -2.546875,-0.5 -0.375,-7.203125 0.171875,-2.84375 1.390625,-3.828125 0.40625,-4.40625 0.21875,-1.90625 0.703125,-4.4375 0.46875,-3.15625 0.5,-2.53125 -0.125,-2.515625 0.40625,-4.40625 0.1875,-2.53125 0.453125,-3.46875 1.125,-2.5625 0.453125,-3.171875 -0.125,-2.515625 0.71875,-4.421875 0.484375,-2.53125 0.109375,-4.09375 0.21875,-1.890625 1.15625,-2.25 -0.34375,-6.890625 L 18.8125,-80.6875 19,-83.21875 l 0.71875,-4.4375 0.203125,-2.203125 0.40625,-4.09375 0.53125,-2.25 0.75,-3.796875 0.21875,-1.90625 1.0625,-3.8125 -0.328125,-6.26563 0.515625,-2.21875 0.53125,-1.90625 0.71875,-4.4375 0.53125,-1.90625 1.109375,-8.84374 0.828125,-2.25 0.515625,-2.21875 0.203125,-2.21875 -0.09375,-1.875 0.21875,-2.1875 0.421875,-3.79688 0.203125,-2.21875 0.75,-3.8125 -0.09375,-1.85937 0.4375,-3.79688 1.046875,-3.82812 -0.21875,-4.375 0.1875,-2.51563 0.3125,-6.625 0.421875,-3.76562 1.28125,-5.73438 0.5,-2.23437 -0.09375,-1.875 L 33,-190.6875 l 0.71875,-4.125 0.421875,-4.42187 0.4375,-3.78125 0.84375,-1.92188 0.203125,-2.20312 0.125,-3.78125 0.5,-2.21875 0.78125,-3.17188 0.59375,-0.98437 0.765625,-3.48438 3.078125,-1.10937 2.1875,-0.10938 3.78125,0.10938 2.203125,0.21875 4.984375,-0.89063 2.5,-0.125 6.90625,-0.0312 6.25,-0.64062 7.828125,-0.39063 3.453125,0.125 1.875,-0.40625 5.015625,-0.25 2.515625,0.1875 2.828125,0.1875 4.734375,0.375 2.1875,-0.10937 2.54688,0.8125 4.45312,1.03125 0.625,-0.0312 1.90625,0.53125 5.39063,1.29687 1.625,0.85938 1.28125,0.5625 3.23437,1.70312 2.28125,1.46875 1.96875,1.46875 5,6.03125 2.6875,3.60938 1.32812,1.51562 1.71875,2.73438 1.48438,4.32812 2.125,4.59375 1.34375,2.14063 1.20312,5.28125 0.125,2.17187 1.78125,4.3125 -0.20312,2.21875 0.9375,6.21875 0.53125,4.0625 -0.84375,1.92188 1.15625,4.34375 0.42187,1.85937 -0.21875,2.20313 0.75,2.17187 -0.20312,2.20313 0.10937,1.89062 -0.70312,5.04688 0.10937,2.1875 -0.35937,5.35937 -0.20313,2.20313 0.45313,8.78124 -1.3125,5.07813 0.10937,2.1875 -0.92187,6.01562 -0.40625,4.73438 -0.26563,7.234375 -0.48437,2.53125 -0.8125,2.546875 -0.15625,3.15625 -1.5625,6.65625 -0.0937,4.09375 -0.4375,3.796875 -0.82813,2.234375 -1.98437,4.1875 -0.54688,1.921875 -0.125,3.453125 -1.65625,4.15625 -0.21875,1.90625 -1.03125,4.453125 -1.98437,4.5 -1.85938,6.359375 -1.42187,3.21875 -2.375,2.625 -0.21875,1.890625 -1.45312,2.265625 -1.45313,1.984375 -2,3.859375 -4.125,5.546875 -4.20312,3.65625 -2.70313,2.65625 -1.8125,1.34375 -3.96875,2.109375 -3.39062,1.09375 L 97.828125,-8.75 93.5,-7.28125 l -3.09375,0.8125 -4.96875,0.875 -3.390625,1.421875 -9.703125,0.5 -2.1875,0.421875 -1.5625,0.078125 z M 63,-45.28125 72.390625,-45.75 l 3.09375,-1.09375 2.421875,-1.390625 3.359375,-2.046875 1.5,-1.328125 2.390625,-2.640625 2.078125,-2.609375 0.828125,-1.921875 1.140625,-2.265625 1.078125,-3.203125 1.421875,-3.21875 1.359375,-4.125 1.578125,-6.0625 0.765625,-3.5 0.71875,-4.40625 1.046875,-4.140625 0.21875,-1.90625 0.53125,-1.59375 0.53125,-1.921875 0.75,-3.78125 0.203125,-2.21875 0.421875,-4.10938 0.406255,-4.40625 0.375,-4.73437 0.20312,-2.20313 0.5,-2.54687 1.35938,-4.46875 -0.21875,-4.39063 0.59375,-6.60937 0.21875,-1.89062 0.29687,-6.625 -0.65625,-6.54688 -0.14062,-9.09375 -1.0625,-8.4375 -0.4375,-2.48437 -2.156255,-5.21875 -2.390625,-3.96875 -1.953125,-1.45313 -1.640625,-1.17187 -5.40625,-1.3125 -5.046875,-0.375 -4.078125,-0.0937 -2.8125,0.45312 -0.8125,2.5625 -0.8125,2.21875 0.09375,1.89063 -0.515625,2.21875 -0.703125,4.75 -1.046875,4.4375 -0.40625,4.10937 -0.40625,4.42188 -0.28125,6.90625 -0.203125,1.90625 -0.5,2.21875 0.109375,2.20312 -0.1875,2.5 -0.84375,1.9375 0.09375,1.875 -0.734375,4.45313 -0.359375,5.03124 0.109375,2.20313 -0.71875,4.4375 -0.53125,1.90625 -0.71875,4.42187 0.09375,1.875 -0.71875,4.4375 -0.515625,2.21875 0.40625,1.85938 -0.515625,2.23437 -0.828125,8.187505 0.203125,4.078125 -0.21875,1.90625 -1.34375,4.46875 0.09375,1.859375 -0.6875,4.75 -0.96875,5.703125 -0.203125,2.203125 -1.03125,4.453125 -0.375,4.734375 -0.07813,4.703125 -0.6875,5.375 -0.484375,2.859375 z m 0,0"
               id="path54" />
          </g>
        </g>
      </g>
    </g>
  </g>
  <g
     fill="#bb0e00"
     fill-opacity="1"
     id="g62"
     transform="translate(-43.714844,-26.261719)">
    <g
       transform="translate(406.81761,456.18624)"
       id="g61">
      <g
         id="g60">
        <path
           d="m 20.765625,-0.796875 -2.6875,-0.015625 -3.671875,0.171875 -1,-0.109375 -7.46875,0.34375 -1.28125,-0.21875 -0.5,-1.265625 0.375,-1.28125 0.234375,-1.28125 0.1875,-2.140625 L 5.125,-8.859375 5.59375,-11 5.640625,-13.265625 6,-14.421875 5.953125,-15.6875 l 0.234375,-1 -0.046875,-1 0.234375,-1.140625 0.09375,-0.984375 0.046875,-1.984375 0.203125,-1.84375 0.515625,-1.15625 0.171875,-2.28125 L 7.375,-28.0625 7.59375,-29.21875 7.796875,-31.046875 7.765625,-31.75 8.25,-33.484375 8.078125,-34.328125 8.40625,-36.1875 l 0.390625,-1 0.109375,-1 0.328125,-2.125 0.234375,-1 0.421875,-3 -0.09375,-2.109375 0.484375,-2.015625 0.171875,-2.125 0.390625,-1.015625 0.07813,-1.125 0.09375,-1.015625 -0.03125,-0.984375 0.53125,-0.84375 0.65625,-4.296875 0.375,-1.140625 0.234375,-1 -0.171875,-0.84375 0.328125,-1.984375 0.46875,-2.15625 -0.04687,-3.9375 0.40625,-1.03125 v -2.96875 l 0.53125,-0.875 0.21875,-1.140625 0.109375,-1 -0.1875,-0.84375 0.09375,-0.984375 0.484375,-1.875 0.1875,-1.984375 0.390625,-0.875 -0.04687,-0.984375 0.390625,-0.984375 -0.171875,-0.84375 0.234375,-1 0.0625,-1.859375 L 16.29689,-91 l 0.109375,-0.859375 0.0625,-1.84375 0.09375,-0.859375 -0.328125,-0.96875 0.34375,-1.71875 0.390625,-0.859375 0.109375,-0.875 1.09375,-0.890625 2.375,-0.109375 0.859375,-0.171875 0.984375,0.0937 1.6875,-0.21875 1,-0.0469 1.125,0.0937 1.421875,-0.0625 3.109375,-0.28125 10.5625,-0.60937 3.265625,-0.0156 1.140625,0.0937 4.09375,-0.32812 3.09375,-0.14063 1.265625,-0.1875 1.421875,0.0781 1.265625,0.0781 0.765625,0.95313 -0.375,1.578125 0.04687,0.84375 -0.125,3.546875 0.03125,0.859375 -0.375,1 -0.09375,1 -0.09375,0.859375 -0.328125,2.125 0.04687,1.125 -0.46875,2 -0.109375,0.859375 -0.34375,1.84375 -1.40625,0.21875 -5.921875,0.265625 -1.6875,0.203125 -9.1875,0.421875 -3.390625,0.296875 -0.34375,1.71875 -0.09375,0.984375 0.09375,1.984375 -0.390625,0.859375 0.0625,1.140625 -0.3125,2.71875 -0.1875,1.953125 -0.328125,2.015625 -0.25,0.984375 0.203125,1.140625 -0.359375,1.421875 -0.1875,2.5625 2.546875,-0.109375 4.9375,-0.07813 2.6875,-0.40625 3.671875,-0.171875 1.125,0.234375 0.921875,1.09375 -0.203125,1.703125 0.04687,1.125 -0.21875,1.578125 -0.34375,1.96875 -0.234375,1.015625 -0.328125,2.125 0.04687,1 -0.375,1.15625 -0.1875,2 -0.328125,2.28125 -0.1875,1.984375 -0.265625,0.28125 -1.421875,0.0625 -2.125,0.25 -1.265625,0.04687 -3.515625,0.296875 -2.40625,-0.03125 -1.546875,0.07813 -1.84375,0.21875 -1.28125,0.0625 -0.484375,1.578125 -0.34375,1.828125 -0.390625,4 -0.34375,1.421875 -0.234375,1.296875 -0.07813,1.40625 -0.234375,1.015625 -0.328125,2.546875 -0.390625,3.703125 0.04687,1.125 0.59375,0.53125 2,0.203125 8.34375,-0.375 1.96875,0.04687 H 42.875 l 3.953125,-0.3125 1,0.375 -0.09375,1.140625 L 47.625,-20.25 l -0.203125,1.578125 -0.09375,1.125 -0.421875,3.140625 0.07813,1.84375 -0.234375,1 -0.25,0.84375 -0.09375,0.984375 -0.34375,2.140625 -0.03125,2.40625 -0.21875,1.28125 -0.359375,1.578125 -13.40625,0.609375 -2.25,0.234375 -1.859375,-0.046875 -0.828125,0.171875 -2.96875,0.140625 -2.25,0.234375 z m 0,0"
           id="path59" />
      </g>
    </g>
  </g>
  <g
     fill="#bb0e00"
     fill-opacity="1"
     id="g65"
     transform="translate(-43.714844,-26.261719)">
    <g
       transform="translate(450.45067,454.22752)"
       id="g64">
      <g
         id="g63">
        <path
           d="m 8.1875,-0.234375 -1.40625,-0.0625 -1.703125,-0.21875 -0.625,-1.390625 -0.0625,-1.546875 0.5,-1.15625 -0.21875,-1.96875 0.09375,-0.859375 0.09375,-0.984375 0.21875,-1.5625 0.515625,-1.15625 L 5.6875,-12 l 0.109375,-0.984375 0.046875,-1.859375 0.09375,-1.125 0.46875,-2.015625 0.5,-1.421875 -0.046875,-1.28125 0.234375,-0.859375 0.046875,-2 0.375,-1.265625 L 7.46875,-25.953125 7.703125,-26.8125 7.65625,-27.796875 8.140625,-29.515625 8.0625,-31.484375 8.25,-33.34375 8.875,-35.359375 9.203125,-37.625 l -0.1875,-1 0.1875,-2.109375 L 9.59375,-41.75 9.5,-43.71875 l 0.390625,-3.984375 0.46875,-1.859375 -0.04687,-1 0.34375,-1.984375 0.04687,-1.859375 0.5,-1.84375 0.484375,-1.71875 0.25,-1 0.34375,-1.71875 -0.07813,-1.703125 0.1875,-1.984375 0.375,-1.015625 0.203125,-1.984375 0.234375,-1.015625 0.1875,-1.828125 -0.171875,-0.828125 0.09375,-1 -0.04687,-0.984375 0.125,-1 0.59375,-2.296875 -0.04687,-0.984375 0.390625,-0.875 0.04687,-1.984375 0.34375,-1.859375 0.234375,-0.859375 0.09375,-1.140625 0.0625,-1.828125 0.0625,-1.5625 0.546875,-1 -0.0625,-1.140625 0.453125,-2.5625 0.203125,-1.859375 0.25,-0.71875 -0.21875,-1.6875 0.09375,-1 0.203125,-1.703125 1.671875,-0.78125 6.890625,-0.59375 5.109375,-0.0937 3.671875,-0.0156 16.5,-0.75 2.265625,0.0469 1.703125,-0.0781 1.859375,0.48438 0.46875,1.109375 -0.234375,1 0.07813,1.5625 -0.203125,1.84375 0.03125,0.703125 -0.3125,2.421875 -0.34375,1.859375 -0.09375,0.859375 0.03125,0.984375 -0.4375,2.546875 -0.296875,3 -1.25,0.75 -1.265625,-0.07813 -2.234375,0.390625 -2.703125,-0.171875 -2,-0.04687 -3.65625,0.296875 -5.796875,0.40625 -1.390625,0.0625 -0.21875,1.15625 -0.07813,1.546875 -0.09375,1.015625 -0.34375,2.125 -0.328125,2 0.03125,0.703125 -0.421875,3.40625 -0.5,1.15625 0.04687,1.125 -0.234375,1.015625 -0.109375,0.859375 0.04687,0.984375 -0.203125,1.703125 -0.359375,1.4375 1.546875,0.0625 6.21875,-0.140625 1.6875,-0.21875 1.96875,-0.21875 1.5625,-0.07813 1.96875,0.0625 0.515625,1.53125 -0.09374,1.1405 -0.390625,1.140625 0.04687,1.140625 -0.46875,2 0.03125,0.703125 -0.34375,1.703125 -0.109375,0.859375 -0.09375,1 -0.328125,1.859375 0.0625,1.6875 -0.46875,1.875 -0.34375,1.984375 -0.78125,1.734375 -1.40625,0.0625 -1.5625,-0.0625 -5.0625,0.21875 -3.234375,0.4375 -3.421875,-0.140625 -0.328125,2.28125 -0.21875,1.40625 -0.1875,1.859375 -0.34375,1.984375 -0.109375,0.734375 -0.484375,1.5625 0.171875,0.84375 -0.328125,1.859375 -0.34375,2.140625 -0.359375,1.703125 -0.46875,1.859375 0.1875,0.984375 -0.25,1.015625 -0.04687,1.96875 0.04687,0.859375 -0.203125,1.984375 -0.203125,1.71875 -0.09375,0.984375 -0.765625,1.75 L 25,-10.3125 25.03125,-9.46875 24.9375,-8.484375 25.125,-7.5 l -0.34375,1.703125 -0.21875,1.71875 -0.46875,1.875 L 22.75,-1.15625 21.734375,-1.25 l -0.96875,0.171875 -3.390625,0.4375 -2.828125,-0.015625 -0.84375,0.1875 z m 0,0"
           id="path62" />
      </g>
    </g>
  </g>
  <g
     fill="#bb0e00"
     fill-opacity="1"
     id="g68"
     transform="translate(-43.714844,-26.261719)">
    <g
       transform="translate(492.38922,452.34487)"
       id="g67">
      <g
         id="g66">
        <path
           d="m 20.765625,-0.796875 -2.6875,-0.015625 -3.671875,0.171875 -1,-0.109375 -7.46875,0.34375 -1.28125,-0.21875 -0.5,-1.265625 0.375,-1.28125 0.234375,-1.28125 0.1875,-2.140625 L 5.125,-8.859375 5.59375,-11 5.640625,-13.265625 6,-14.421875 5.953125,-15.6875 l 0.234375,-1 -0.046875,-1 0.234375,-1.140625 0.09375,-0.984375 0.046875,-1.984375 0.203125,-1.84375 0.515625,-1.15625 0.171875,-2.28125 L 7.375,-28.0625 7.59375,-29.21875 7.796875,-31.046875 7.765625,-31.75 8.25,-33.484375 8.078125,-34.328125 8.40625,-36.1875 l 0.390625,-1 0.109375,-1 0.328125,-2.125 0.234375,-1 0.421875,-3 -0.09375,-2.109375 0.484375,-2.015625 0.171875,-2.125 0.390625,-1.015625 0.07813,-1.125 0.09375,-1.015625 -0.03125,-0.984375 0.53125,-0.84375 0.65625,-4.296875 0.375,-1.140625 0.234375,-1 -0.171875,-0.84375 0.328125,-1.984375 0.46875,-2.15625 -0.04687,-3.9375 0.40625,-1.03125 v -2.96875 l 0.53125,-0.875 0.21875,-1.140625 0.109375,-1 -0.1875,-0.84375 0.09375,-0.984375 0.484375,-1.875 0.1875,-1.984375 0.390625,-0.875 -0.04687,-0.984375 0.390625,-0.984375 -0.171875,-0.84375 0.234375,-1 0.0625,-1.859375 L 16.29689,-91 l 0.109375,-0.859375 0.0625,-1.84375 0.09375,-0.859375 -0.328125,-0.96875 0.34375,-1.71875 0.390625,-0.859375 0.109375,-0.875 1.09375,-0.890625 2.375,-0.109375 0.859375,-0.171875 0.984375,0.0937 1.6875,-0.21875 1,-0.0469 1.125,0.0937 1.421875,-0.0625 3.109375,-0.28125 10.5625,-0.60937 3.265625,-0.0156 1.140625,0.0937 4.09375,-0.32812 3.09375,-0.14063 1.265625,-0.1875 1.421875,0.0781 1.265625,0.0781 0.765625,0.95313 -0.375,1.578125 0.04687,0.84375 -0.125,3.546875 0.03125,0.859375 -0.375,1 -0.09375,1 -0.09375,0.859375 -0.328125,2.125 0.04687,1.125 -0.46875,2 -0.109375,0.859375 -0.34375,1.84375 -1.40625,0.21875 -5.921875,0.265625 -1.6875,0.203125 -9.1875,0.421875 -3.390625,0.296875 -0.34375,1.71875 -0.09375,0.984375 0.09375,1.984375 -0.390625,0.859375 0.0625,1.140625 -0.3125,2.71875 -0.1875,1.953125 -0.328125,2.015625 -0.25,0.984375 0.203125,1.140625 -0.359375,1.421875 -0.1875,2.5625 2.546875,-0.109375 4.9375,-0.07813 2.6875,-0.40625 3.671875,-0.171875 1.125,0.234375 0.921875,1.09375 -0.203125,1.703125 0.04687,1.125 -0.21875,1.578125 -0.34375,1.96875 -0.234375,1.015625 -0.328125,2.125 0.04687,1 -0.375,1.15625 -0.1875,2 -0.328125,2.28125 -0.1875,1.984375 -0.265625,0.28125 -1.421875,0.0625 -2.125,0.25 -1.265625,0.04687 -3.515625,0.296875 -2.40625,-0.03125 -1.546875,0.07813 -1.84375,0.21875 -1.28125,0.0625 -0.484375,1.578125 -0.34375,1.828125 -0.390625,4 -0.34375,1.421875 -0.234375,1.296875 -0.07813,1.40625 -0.234375,1.015625 -0.328125,2.546875 -0.390625,3.703125 0.04687,1.125 0.59375,0.53125 2,0.203125 8.34375,-0.375 1.96875,0.04687 H 42.875 l 3.953125,-0.3125 1,0.375 -0.09375,1.140625 L 47.625,-20.25 l -0.203125,1.578125 -0.09375,1.125 -0.421875,3.140625 0.07813,1.84375 -0.234375,1 -0.25,0.84375 -0.09375,0.984375 -0.34375,2.140625 -0.03125,2.40625 -0.21875,1.28125 -0.359375,1.578125 -13.40625,0.609375 -2.25,0.234375 -1.859375,-0.046875 -0.828125,0.171875 -2.96875,0.140625 -2.25,0.234375 z m 0,0"
           id="path65" />
      </g>
    </g>
  </g>
  <g
     fill="#bb0e00"
     fill-opacity="1"
     id="g71"
     transform="translate(-43.714844,-26.261719)">
    <g
       transform="translate(536.02228,450.38616)"
       id="g70">
      <g
         id="g69">
        <path
           d="m 7.21875,-0.046875 -2.125,-0.1875 -0.796875,-1.671875 0.25,-1.125 L 4.4375,-5.296875 4.625,-7.5625 l 0.46875,-2 0.09375,-0.984375 0.34375,-2 0.25,-0.71875 0.328125,-2 0.21875,-1.28125 0.328125,-2.28125 L 6.609375,-19.8125 6.84375,-20.96875 6.765625,-22.796875 7.28125,-23.8125 7.34375,-25.5 l 0.09375,-1.015625 0.34375,-1.703125 0.109375,-0.859375 -0.1875,-0.984375 0.203125,-1.84375 0.453125,-2.28125 0.203125,-1.71875 0.234375,-1.28125 0.359375,-1.578125 0.203125,-1.6875 0.09375,-1 0.25,-0.859375 0.0625,-1.859375 0.09375,-0.84375 -0.03125,-0.84375 0.625,-1.734375 0.109375,-0.84375 0.09375,-1 0.04687,-1.984375 0.07813,-1.421875 0.640625,-1.734375 0.234375,-1.125 L 11.875,-57.125 11.78125,-59.09375 11.875,-60.25 l 0.375,-1.140625 -0.0625,-1.140625 0.390625,-1 -0.04687,-0.984375 0.234375,-1.015625 0.203125,-1.84375 0.34375,-1.578125 0.375,-1.28125 -0.0625,-1.6875 0.09375,-1 0.234375,-0.84375 0.53125,-4.015625 -0.04687,-0.984375 0.5,-1.28125 0.234375,-1.296875 0.0625,-1.828125 0.09375,-1.015625 0.09375,-0.84375 0.09375,-1 0.265625,-0.84375 0.09375,-1 0.203125,-1.859375 0.203125,-1.6875 0.34375,-1.875 -0.04687,-1.125 0.328125,-1.859375 0.25,-0.859375 0.390625,-0.71875 0.78125,-1.59375 1.375,-0.34375 1.984375,-0.234375 2.390625,0.0312 1.28125,-0.0625 1.84375,-0.21875 2.671875,0.0156 1.703125,-0.20312 2.125,0.0312 1.953125,-0.0781 1.59375,0.34375 0.890625,1.250005 0.1875,0.984375 0.625,1.390625 0.359375,1.671875 0.234375,1.5625 0.640625,1.9375 0.71875,3.359375 0.515625,2.234375 0.53125,2.390625 0.515625,1.96875 0.703125,2.796875 0.328125,1.109375 0.1875,0.984375 0.375,2.109375 0.515625,1.828125 0.03125,0.828125 0.484375,1.53125 0.04687,1 0.21875,1.53125 0.515625,2.109375 0.390625,2.390625 0.53125,2.375 0.234375,2.265625 0.390625,1.96875 L 47.75,-55.5 l 0.59375,3.8125 0.703125,3.21875 0.421875,3.09375 0.04687,0.984375 0.328125,0.984375 0.359375,1.6875 0.59375,3.78125 0.578125,3.078125 0.421875,-0.01563 0.01563,-2.828125 0.125,-3.40625 -0.09375,-1.96875 0.125,-6.796875 0.265625,-3 -0.21875,-4.78125 0.34375,-2 0.09375,-0.84375 0.09375,-1.015625 0.09375,-1.125 0.0625,-1.984375 0.25,-0.859375 0.1875,-2 -0.03125,-0.84375 0.484375,-1.875 -0.07813,-1.6875 0.0625,-1.6875 -0.04687,-0.984375 0.765625,-1.734375 -0.1875,-0.984375 0.3125,-2.5625 -0.03125,-0.84375 0.328125,-1.859375 0.109375,-1 0.25,-0.859375 0.1875,-2 0.09375,-1.125 0.34375,-1.984375 0.234375,-1 0.359375,-1.15625 -0.04687,-1.265625 0.09375,-0.859375 0.328125,-2.28125 0.421875,-2.984375 1.0625,-2.046885 0.53125,-0.4375 2.671875,-0.6875 2.984375,0.14063 0.953125,-0.17188 1.421875,-0.0625 3.265625,-0.0156 1.40625,-0.0625 1.96875,-0.21875 2,0.32812 0.875,0.375 0.1875,1.14063 0.04687,1.125005 -0.328125,2 0.1875,1.125 -0.28125,3.125 -0.1875,2 -0.71875,3.40625 -0.34375,1.578125 -0.3125,2.5625 -0.234375,1.15625 -0.28125,2.984375 -0.46875,2.265625 -0.1875,2.28125 -0.359375,1.296875 -0.234375,1.125 -0.234375,1 0.07813,1.84375 -0.234375,1 -0.375,4.265625 -0.359375,1.296875 -0.07813,1.5625 -0.09375,0.984375 -0.234375,1.140625 -0.359375,1.875 -0.234375,0.96875 -0.328125,1.875 -0.203125,1.96875 -0.234375,1.15625 0.203125,1.265625 -0.234375,0.875 -0.109375,0.984375 -0.234375,0.859375 -0.09375,0.984375 -0.109375,0.875 0.07813,1.828125 -0.375,0.875 -0.359375,1.96875 L 68.375,-40 l -0.07813,1.265625 -0.109375,0.859375 -0.07813,1 L 68,-36.03125 l 0.04687,0.84375 -0.46875,2.015625 -0.203125,2 -0.21875,1.421875 -0.5,1.296875 -0.5,1.71875 -0.07813,1.546875 -0.04687,1.84375 -0.203125,1.859375 -0.375,1.140625 -0.46875,2 0.09375,2.265625 -0.609375,1.859375 0.03125,0.859375 -0.234375,1 -0.359375,1.828125 -0.5,4.5625 -1.1875,1.765625 -1.375,1.046875 -1.96875,0.234375 -1.546875,0.34375 -0.5625,0.03125 -2.671875,-0.015625 -0.984375,0.171875 -1.421875,-0.0625 -0.84375,0.171875 -2.828125,0.125 -1.84375,-0.0625 -2.390625,0.109375 -1.1875,-0.921875 L 41.35937,-5.25 40.57812,-7.203125 40.406245,-7.90625 40.17187,-9.578125 l -0.1875,-0.84375 -0.40625,-2.953125 -0.1875,-0.84375 -0.6875,-2.9375 -0.1875,-0.84375 -0.359375,-1.96875 -0.234375,-2.125 -0.484375,-1.515625 -0.515625,-2.09375 -0.03125,-0.84375 -0.515625,-1.96875 -0.1875,-0.828125 -0.515625,-1.96875 -0.1875,-0.84375 -0.09375,-2.125 -0.6875,-2.796875 -0.40625,-2.671875 -0.734375,-3.921875 -0.90625,-4.5 -0.609375,-3.9375 -1.078125,-5.03125 -1.078125,-5.328125 -0.421875,0.03125 0.03125,3.953125 -0.01563,2.8125 -0.0625,1.5625 -0.1875,2.421875 0.01563,3.53125 -0.6875,6.84375 -0.3125,5.515625 -0.25,0.859375 -0.328125,1.84375 0.328125,1 -0.359375,1.703125 -0.234375,1.015625 0.1875,0.96875 -0.09375,0.859375 -0.21875,1.984375 -0.46875,2.140625 -0.4375,2.859375 -0.1875,1.984375 -0.09375,0.859375 -0.25,1 -0.375,4.109375 -0.34375,1.875 -0.109375,0.984375 0.09375,1.828125 -0.25,0.859375 -0.3125,2.5625 -0.484375,1.71875 -0.359375,1.4375 -1.515625,0.625 z m 0,0"
           id="path68" />
      </g>
    </g>
  </g>
  <g
     fill="#bb0e00"
     fill-opacity="1"
     id="g74"
     transform="translate(-43.714844,-26.261719)">
    <g
       transform="translate(602.53125,447.40053)"
       id="g73">
      <g
         id="g72">
        <path
           d="M 28.03125,0.59375 24.625,0.453125 23.640625,0.34375 l -1.40625,0.0625 -1.5625,-0.203125 -1.4375,-0.21875 L 18.25,-0.25 15.9375,-1.140625 14.359375,-1.625 l -1.46875,-0.9375 -1.734375,-1.046875 -1.5,-1.78125 -1.484375,-1.625 L 6.8125,-8.9375 5.71875,-11.296875 5.390625,-12.40625 l -1.09375,-2.5 -0.1875,-0.84375 -0.515625,-1.96875 -0.1875,-0.828125 -0.375,-2.25 -0.1875,-4.21875 0.03125,-2.421875 -0.1875,-0.96875 0.1875,-2.140625 0.09375,-1.140625 0.25,-1 0.3125,-2.296875 1.921875,-1.0625 3.375,-0.4375 1.703125,0.0625 7.921875,-0.359375 1.828125,0.0625 1.234375,1.9375 0.234375,5.234375 -0.09375,0.984375 0.125,2.96875 0.421875,3.078125 0.46875,1.390625 1.078125,2.078125 1.5,1.359375 1.84375,0.34375 1.28125,-0.0625 1.109375,-0.328125 1.546875,-0.5 0.671875,-0.734375 0.640625,-1.296875 0.515625,-1.03125 0.484375,-1.71875 0.21875,-1.703125 0.07813,-1.40625 -0.03125,-1 -0.234375,-1.953125 -0.109375,-2.265625 -0.6875,-2.53125 -0.03125,-0.84375 -0.515625,-2.109375 -1.21875,-1.90625 -1.21875,-1.640625 -1.078125,-1.9375 -0.59375,-0.828125 -0.3125,-0.6875 -0.453125,-0.6875 -1.046875,-0.953125 -0.75,-1.09375 -1.625,-1.765625 -0.75,-0.671875 -0.609375,-0.828125 -1.609375,-1.765625 -1.78125,-1.75 L 17.625,-55.140625 16.140625,-56.625 14.6875,-57.671875 13.921875,-58.625 l -0.90625,-1.390625 -0.9375,-2.078125 -0.625,-1.25 -0.75,-0.953125 L 10.21875,-65.28125 9.890625,-66.390625 9.25,-68.203125 9.015625,-70.03125 8.828125,-71.125 8.921875,-72.140625 8.75,-76.234375 l 0.15625,-2.84375 0.375,-1 0.046875,-1.984375 0.53125,-1.015625 0.359375,-1.4375 0.07813,-1.40625 0.765625,-1.875 0.515625,-1.15625 0.375,-1.015625 0.390625,-0.71875 1.078125,-1.3125 0.390625,-0.609375 0.78125,-1.4375 0.828125,-0.875 1.625,-1.5 L 19.5,-98.375 l 2.21875,-0.953125 1.515625,-0.906255 2.65625,-0.6875 2.375,-0.8125 4.375,-0.20312 3.53125,-0.0156 0.984375,-0.0469 1.28125,0.23437 2.140625,0.0469 2.4375,0.59375 0.984375,0.0937 0.578125,0.39062 1.75,0.781255 1.015625,0.8125 1.15625,0.359375 1.59375,1.34375 0.453125,0.5625 1.5,1.484375 L 52.5,-94.625 l 1.046875,1.53125 0.59375,0.8125 0.359375,1.546875 0.484375,0.96875 0.984375,3.328125 0.140625,3.109375 0.28125,2.828125 -0.04687,2.40625 -0.375,3.984375 -0.421875,3.125 -1.671875,0.9375 -2.53125,0.25 -7.90625,0.359375 -1.984375,-0.0625 -1.984375,0.09375 -1.171875,-0.953125 -0.21875,-1.796875 0.234375,-1.15625 0.21875,-4.390625 -0.140625,-3.25 -0.359375,-1.703125 -0.453125,-0.8125 -1.34375,-1.234375 -1.4375,-1.0625 -1.859375,-0.1875 -1.671875,0.625 -1.515625,0.78125 -0.671875,1.03125 -0.375,1 -0.5,1.4375 -0.09375,1 -0.375,1.421875 -0.04687,2 0.07813,1.84375 0.1875,0.96875 1.125,2.65625 1.203125,1.890625 0.625,1.125 1.078125,1.78125 1.640625,1.90625 1.9375,2.1875 0.578125,0.8125 0.734375,0.671875 0.625,1.125 0.609375,0.671875 0.859375,0.53125 1.46875,1.078125 0.453125,0.828125 0.734375,0.359375 0.453125,0.6875 1.328125,1.375 0.765625,1.234375 1.78125,1.625 1.09375,2.34375 1.34375,1.5 0.171875,0.703125 1.25,2.78125 0.9375,1.796875 0.984375,2.921875 0.1875,0.96875 0.1875,1.125 0.1875,0.984375 0.796875,2.375 0.3125,0.84375 -0.04687,1.984375 -0.09375,0.84375 0.171875,0.984375 -0.09375,0.984375 0.1875,3.953125 -0.328125,2 -0.09375,0.859375 0.09375,2.109375 -0.484375,1.875 -0.234375,1.125 -0.21875,1.296875 -0.625,2 -1.171875,2.46875 -0.8125,0.578125 L 49,-8.4375 48.328125,-7.84375 47.25,-6.5 l -0.671875,0.59375 -1.09375,1.03125 -1.375,0.90625 -1.234375,1.0625 -1.671875,0.5 -0.828125,0.59375 -2.0625,0.796875 -1.140625,0.1875 -1.796875,0.65625 -1,0.1875 -1.265625,-0.09375 L 32.125,0.125 30.5625,0.1875 29.59375,0.375 Z m 0,0"
           id="path71" />
      </g>
    </g>
  </g>
  <g
     fill="#bb0e00"
     fill-opacity="1"
     id="g77"
     transform="translate(-43.714844,-26.261719)">
    <g
       transform="translate(651.81283,445.18825)"
       id="g76">
      <g
         id="g75">
        <path
           d="M 11.453125,-0.234375 9.3125,-0.28125 8.328125,-0.375 l -10.3125,0.328125 -1.28125,-0.234375 -0.328125,-1.125 0.234375,-1 L -3.265625,-3.25 -2.5,-4.984375 -1.4375,-6.875 -0.21875,-11.171875 0.546875,-12.890625 1.1875,-14.625 2.578125,-18.09375 3.0625,-19.953125 4.09375,-22.546875 4.328125,-23.40625 5,-24.40625 5.625,-26.140625 5.859375,-27 l 0.109375,-1 0.390625,-0.859375 0.609375,-1.875 0.375,-1 0.890625,-2.03125 0.234375,-1 0.234375,-1.296875 0.671875,-1.15625 0.765625,-1.734375 0.234375,-0.984375 0.75,-2.015625 0.109375,-0.859375 0.390625,-1 0.375,-0.875 0.625,-2 0.375,-0.875 0.953125,-4.015625 0.390625,-1.140625 0.890625,-1.890625 0.609375,-2.421875 0.765625,-1.578125 0.40625,-0.875 0.328125,-1.859375 0.671875,-1.015625 0.328125,-1.859375 0.25,-0.71875 0.765625,-1.875 0.34375,-2 0.640625,-1.015625 0.53125,-0.875 1.625,-4.875 0.390625,-0.859375 0.78125,-1.3125 0.359375,-1.4375 0.375,-1 1.171875,-2.609375 0.234375,-1 0.390625,-0.875 0.234375,-0.859375 0.234375,-1 0.78125,-1.578125 0.546875,-0.875 0.25,-0.703125 0.71875,-2.59375 0.90625,-1.890625 1.171875,-2.59375 0.375,-1.015625 0.375,-0.859375 0.5,-1.578125 0.984375,-0.1875 1.390625,-0.0625 2.703125,0.0156 1.390625,-0.20312 2.265625,-0.10938 2.6875,-0.25 1.265625,-0.0625 1.015625,0.23438 1.25,-0.1875 2.265625,-0.10938 0.703125,0.25 1.03125,0.65625 0.703125,6.062505 0.140625,3.125 0.3125,0.828125 0.109375,2.53125 0.375,5.078125 0.09375,1.984375 0.21875,1.828125 0.40625,2.828125 0.09375,1.96875 0.234375,2.09375 -0.09375,1 0.140625,3.109375 0.359375,1.96875 0.125,2.828125 0.234375,1.96875 -0.09375,0.859375 0.21875,1.8125 0.03125,0.859375 0.25,2.234375 0.34375,1.546875 0.25,5.515625 0.21875,1.6875 0.1875,1.125 0.1875,4.21875 0.4375,6.5 0.04687,1 0.234375,2.109375 -0.04687,2.125 0.234375,1.984375 -0.109375,0.984375 0.53125,5.34375 0.03125,0.84375 0.25,1.84375 0.171875,0.96875 0.109375,2.125 -0.0625,1.984375 0.1875,1.125 0.0625,1.265625 0.28125,3.09375 0.125,2.96875 c 0.113281,0.273438 0.179688,0.667969 0.203125,1.1875 0.01953,0.523438 -0.15625,0.886719 -0.53125,1.09375 -0.28125,0.105469 -0.542969,0.140625 -0.78125,0.109375 C 57.441406,-2.554688 57.1875,-2.566406 56.90625,-2.546875 L 55.921875,-2.375 54.78125,-2.453125 52.828125,-2.375 l -3.109375,0.28125 -1.140625,0.046875 -1.6875,-0.0625 -1,0.1875 L 44.5,-1.71875 l -1.859375,-0.046875 -2.125,0.09375 -0.578125,-0.40625 -0.34375,-1.40625 -0.25,-2.53125 -0.203125,-1.40625 0.07813,-1.421875 -0.296875,-6.640625 -0.203125,-1.109375 H 35.625 l -2.28125,-0.1875 -6.21875,0.140625 -3.8125,0.171875 -0.640625,1.578125 L 21.78125,-13 l -0.25,1 -0.375,1.015625 -0.484375,1.71875 -1.28125,2.734375 L 18.625,-4.375 18.265625,-2.8125 17.875,-2.078125 17.359375,-1.0625 16.53125,-0.453125 12.5625,-0.421875 Z m 21.78125,-35.078125 4.21875,-0.1875 0.8125,-0.734375 0.04687,-2 -0.1875,-1.125 0.09375,-1.140625 -0.171875,-3.65625 0.109375,-0.984375 -0.109375,-2.40625 0.21875,-1.15625 -0.28125,-3.390625 -0.109375,-5.359375 -0.07813,-5.078125 -0.296875,-3.25 -1.109375,0.46875 -0.453125,1.859375 -0.609375,2.296875 -0.359375,1.4375 -0.609375,2.28125 -0.515625,1.171875 -0.5,1.40625 -0.09375,1.015625 -0.515625,1 -0.375,1.296875 -0.390625,1.015625 -0.359375,1.28125 -0.703125,3.140625 -0.09375,1 -0.609375,2.15625 -0.53125,1.03125 -0.609375,2.40625 -0.234375,1 -0.21875,1.28125 -0.375,1 1.015625,0.828125 1.140625,-0.0625 1.5625,0.07813 z m 0,0"
           id="path74" />
      </g>
    </g>
  </g>
</svg>
